<?xml version="1.0" encoding="UTF-8"?>
<svg width="1400px" height="1171px" viewBox="0 0 1400 1171" version="1.1" xmlns="http://www.w3.org/2000/svg" xmlns:xlink="http://www.w3.org/1999/xlink">
    <g stroke="none" stroke-width="1" fill="none" fill-rule="evenodd" opacity="0.649137127">
        <g>
            <g transform="translate(-300.000000, -29.000000)">
                <polygon id="Fill-1" fill="#FAF4F1" points="1719.8883 80.8077 1150.3333 327.3177 1338.7783 503.8087 1999.9993 872.6707 1999.9993 35.5597"></polygon>
                <polygon id="Fill-2" fill="#FCF9F8" points="1078.436 358.408 1339.278 503.809 1150.333 327.318"></polygon>
                <polygon id="Fill-3" fill="#FAF4F1" points="1009.2 195.488 836.207 223.384 1078.436 358.408 1150.333 327.318"></polygon>
                <polygon id="Fill-4" fill="#F9EFEC" points="1720.3879 80.808 1009.1999 195.488 1150.3329 327.318"></polygon>
                <polygon id="Fill-6" fill="#FAF4F1" points="0 824.3256 0 1199.9996 2000 1199.9996 2000 1121.9156 1338.528 503.8086 1077.936 358.4086"></polygon>
                <polygon id="Fill-7" fill="#F9EFEC" points="1999.9998 1121.9151 1999.9998 872.6711 1338.2778 503.8081"></polygon>
                <polygon id="Fill-8" fill="#F9EFEC" points="0 358.0617 0 824.3257 1077.686 358.4077 835.707 223.3837"></polygon>
                <polygon id="Fill-9" fill="#F7EBE7" points="798.8481 0.0004 1009.2001 196.2384 1720.3881 81.3084 1909.5681 0.0004"></polygon>
                <polygon id="Fill-10" fill="#F7EBE7" points="0 0.0004 0 358.0614 835.707 223.8844 433.673 0.0004"></polygon>
                <polygon id="Fill-11" fill="#F9EFEC" points="433.6731 0.0004 836.2071 224.1344 1009.2001 195.9884 798.8481 0.0004"></polygon>
            </g>
        </g>
    </g>
</svg>
