<svg width="39" height="33" viewBox="0 0 39 33" xmlns="http://www.w3.org/2000/svg"><title></title><desc></desc><g fill="none"><g id="Group-3" stroke="#545454" stroke-width="1.286" stroke-linecap="round" stroke-linejoin="round"><path d="M30.614 4.193l4.342-3.519M32.002 11.212l5.546-.048M31.061 19.195l4.729 2.955" id="Path-2"/></g><g stroke="#545454" stroke-width="1.286" stroke-linecap="round" stroke-linejoin="round"><path d="M8.385 4.193l-4.342-3.519M6.998 11.212l-5.546-.048M7.939 19.195l-4.729 2.955"/></g><path d="M22.673 29.308c-.3-.064-.732-.093-1.404-.093l-1.09.015-1.074.015-.469-.006-.514-.006c-.609 0-1.877 0-1.938.806-.017.221.054.407.211.551.349.323 1.049.366 1.689.366.297 0 .609-.011.911-.022.298-.011.579-.021.841-.021l.628.001c.491.001 1.035.003 1.499-.001.789-.007 1.534-.014 1.591-.736.054-.671-.487-.786-.882-.871" fill="#535353"/><path d="M21.629 31.42l-.006-.002c-.199-.054-.55-.077-1.173-.077l-.72.006-.559.006c-.771.004-1.73.008-1.791.736-.02.236.048.427.201.57.279.26.771.312 1.476.312l.38-.003.401-.003.469.007.476.007c.498 0 1.527-.001 1.578-.752.041-.597-.387-.713-.731-.807" fill="#535353"/><path d="M26.955 5.532c-.614-.66-1.469-1.497-2.643-2.118-1.136-.6-2.271-.907-3.796-1.027-.256-.02-.514-.03-.766-.03-3.156 0-5.347 1.542-6.629 2.836-1.433 1.446-3.091 3.891-2.847 7.326.18 2.537 1.62 4.53 2.777 6.133l.05.069c.206.286.421.566.649.862.715.932 1.455 1.896 1.986 3.12l.061.14c.217.497.487 1.115.454 1.434-.023.228-.121.339-.233.467-.156.179-.351.401-.226.878.162.618.935.618 1.829.618h4.663c.738 0 1.501 0 1.663-.619.122-.466-.091-.727-.262-.936-.097-.119-.18-.221-.198-.349-.087-.621.578-2.032 1.233-3.081.413-.662.858-1.236 1.287-1.792.199-.257.386-.499.564-.742l.284-.385c1.19-1.61 2.421-3.274 2.61-5.749.267-3.5-1.458-5.922-2.51-7.054zm-1.776 11.938l-.255.34-.445.591c-1.336 1.762-2.599 3.428-2.895 5.962h-3.431c-.368-2.68-1.655-4.388-3.017-6.195l-.319-.425-.182-.242c-1.061-1.412-2.263-3.012-2.435-4.881-.273-2.953 1.081-4.967 2.265-6.136 1.513-1.494 3.338-2.252 5.426-2.252.238 0 .483.01.728.03 3.683.304 6.659 3.335 6.923 7.05.196 2.758-1.104 4.486-2.362 6.158z" fill="#535353"/><path d="M22.673 27.02c-.3-.064-.732-.093-1.404-.093l-1.09.015-1.074.015-.469-.006-.514-.006c-.609 0-1.877 0-1.938.806-.017.221.054.407.211.551.349.323 1.049.366 1.689.366.297 0 .609-.011.911-.022.298-.011.579-.021.841-.021l.628.001c.491.001 1.035.003 1.499-.001.789-.007 1.534-.014 1.591-.737.054-.67-.487-.786-.882-.87" fill="#535353"/><path d="M23.544 13.758l-.064-.002c-.299 0-.562.155-.841.319-.276.162-.561.33-.871.33l-.136-.011.038-.086c.07-.154.149-.328.144-.556-.015-.676-.492-1.094-.926-1.094-.37 0-.661.269-.777.721-.113.439.016.746.141 1.015-.129.012-.285.004-.423-.014.163-.379.236-.877.108-1.243-.088-.255-.261-.424-.5-.49-.36-.1-.716.057-.925.403-.213.354-.249.839-.104 1.248-.133.062-.27.092-.414.092-.398 0-.801-.235-1.156-.442l-.284-.161c-.07-.038-.155-.039-.227-.004-.072.035-.121.103-.132.181-.074.52.129 1.02.327 1.503l.172.445c.206.602.407 1.217.602 1.812.199.609.405 1.238.62 1.866l.108.399c.12.495.27 1.112.844 1.346.075.031.161.023.229-.022.068-.044.109-.119.109-.198.005-.803-.297-1.552-.589-2.276-.111-.275-.225-.559-.32-.839-.153-.453-.294-.929-.43-1.389-.135-.458-.275-.928-.428-1.385l.065.01c.167.027.341.055.576.041.185-.011.359-.079.512-.138.134-.052.261-.101.365-.101.112.002.247.066.389.135.172.083.366.176.583.185.225.01.411-.068.573-.136.124-.052.231-.097.346-.104.189-.01.394.028.614.069.212.039.43.08.652.08l.276-.024-.408 1.222c-.16.475-.325.965-.485 1.459l-.28.807c-.276.769-.561 1.564-.627 2.365-.007.079.027.156.09.206l.153.053.071-.01c.578-.172.793-.885.965-1.459l.092-.294c.246-.731.493-1.52.731-2.283.339-1.083.689-2.203 1.059-3.229.025-.07.016-.148-.025-.211s-.11-.103-.186-.109" fill="#545454"/></g></svg>
