<svg width="209" height="51" viewBox="0 0 209 51" xmlns="http://www.w3.org/2000/svg" xmlns:xlink="http://www.w3.org/1999/xlink"><title></title><desc></desc><defs><path d="M121.069 34.436c-.223.169-.448.331-.677.485-1.286.866-2.744 1.299-4.374 1.299-2.241 0-3.903-1.019-4.986-3.056-.114-.215-.222-.436-.324-.664-1.02 1.047-2.185 1.886-3.496 2.517-1.668.802-3.279 1.203-4.833 1.203-2.496 0-4.438-.707-5.826-2.12-1.02-1.039-1.666-2.322-1.936-3.85-.73.287-1.492.431-2.286.431-1.35 0-2.375-.344-3.075-1.031-.7-.688-1.051-1.617-1.051-2.789 0-.382.038-.764.115-1.146.051-.509.076-.853.076-1.031 0-.408-.14-.611-.42-.611-.382 0-.885.427-1.509 1.28-.624.853-1.242 1.98-1.853 3.381-.611 1.401-1.108 2.878-1.49 4.432-.28 1.197-.605 2.006-.974 2.426-.369.42-.949.63-1.738.63-.968 0-1.649-.509-2.044-1.528-.129-.333-.237-.732-.324-1.196-.587.44-1.243.864-1.968 1.272-1.719.968-3.559 1.452-5.52 1.452-2.674 0-4.75-.726-6.227-2.178-1.31-1.287-2.039-2.994-2.187-5.122-.744.121-1.518.199-2.321.232-.509 2.114-1.471 3.82-2.884 5.119-1.414 1.299-2.973 1.948-4.68 1.948-2.572 0-4.444-.981-5.616-2.942-.149-.25-.289-.515-.42-.794-.874.956-1.797 1.768-2.77 2.436-1.261.866-2.693 1.299-4.298 1.299-1.299 0-2.279-.376-2.942-1.127-.662-.751-.993-1.84-.993-3.266 0-.713.178-1.987.535-3.82.331-1.605.497-2.712.497-3.324 0-.408-.14-.611-.42-.611-.331 0-.802.427-1.414 1.28-.611.853-1.223 1.98-1.834 3.381-.611 1.401-1.108 2.878-1.49 4.432-.28 1.223-.605 2.038-.974 2.445-.369.408-.961.611-1.776.611-.84 0-1.471-.401-1.891-1.203-.42-.802-.63-1.776-.63-2.923 0-.968.127-2.369.382-4.202.204-1.63.306-2.7.306-3.209 0-.408-.14-.611-.42-.611-.382 0-.866.458-1.452 1.375s-1.152 2.088-1.7 3.515c-.548 1.426-.987 2.827-1.318 4.202-.28 1.197-.605 2.006-.974 2.426-.369.42-.949.63-1.738.63-.968 0-1.649-.509-2.044-1.528-.129-.333-.237-.732-.324-1.196-.587.44-1.243.864-1.968 1.272-1.719.968-3.559 1.452-5.52 1.452-2.674 0-4.75-.726-6.227-2.178-1.477-1.452-2.216-3.438-2.216-5.96 0-1.757.369-3.394 1.108-4.909.739-1.515 1.764-2.719 3.075-3.61 1.312-.891 2.795-1.337 4.451-1.337 1.477 0 2.661.439 3.553 1.318.891.879 1.337 2.069 1.337 3.572 0 1.757-.63 3.266-1.891 4.527-1.261 1.261-3.394 2.26-6.399 2.999.637 1.172 1.846 1.757 3.629 1.757 1.146 0 2.451-.401 3.916-1.203 1.07-.586 2.034-1.304 2.893-2.155.067-3.033.535-5.925 1.405-8.676.229-.739.605-1.28 1.127-1.624.522-.344 1.254-.516 2.197-.516.509 0 .866.064 1.07.191.204.127.306.369.306.726 0 .408-.191 1.324-.573 2.751-.255 1.019-.458 1.904-.611 2.655-.153.751-.28 1.687-.382 2.808.688-1.987 1.509-3.668 2.464-5.043.955-1.375 1.936-2.4 2.942-3.075 1.006-.675 1.955-1.012 2.846-1.012s1.522.204 1.891.611c.369.408.554 1.031.554 1.872 0 .815-.242 2.292-.726 4.432-.204.917-.344 1.605-.42 2.063 1.273-3.133 2.687-5.412 4.241-6.838 1.554-1.426 3.005-2.139 4.355-2.139 1.655 0 2.483.828 2.483 2.483 0 .993-.28 2.789-.84 5.387-.484 2.216-.726 3.68-.726 4.393 0 1.019.369 1.528 1.108 1.528.509 0 1.114-.312 1.815-.936.603-.537 1.381-1.363 2.334-2.477-.168-1.156-.252-2.438-.252-3.846 0-3.285.407-6.857 1.223-10.716.815-3.859 2.006-7.144 3.572-9.856 1.566-2.712 3.432-4.069 5.597-4.069 1.172 0 2.114.503 2.827 1.509.713 1.006 1.07 2.311 1.07 3.916 0 2.088-.395 4.164-1.184 6.227-.79 2.063-2.101 4.228-3.935 6.495 1.706.127 3.094.834 4.164 2.12 1.07 1.286 1.706 2.872 1.91 4.756.733-.047 1.552-.16 2.457-.341.168-.557.38-1.099.637-1.626.739-1.515 1.764-2.719 3.075-3.61 1.312-.891 2.795-1.337 4.451-1.337 1.477 0 2.661.439 3.553 1.318.891.879 1.337 2.069 1.337 3.572 0 1.757-.63 3.266-1.891 4.527-1.261 1.261-3.394 2.26-6.399 2.999.637 1.172 1.846 1.757 3.629 1.757 1.146 0 2.451-.401 3.916-1.203 1.07-.586 2.034-1.304 2.893-2.155.067-3.033.535-5.925 1.405-8.676.229-.739.605-1.28 1.127-1.624.522-.344 1.254-.516 2.197-.516.509 0 .866.064 1.07.191.204.127.306.369.306.726 0 .408-.191 1.324-.573 2.751-.255 1.019-.458 1.91-.611 2.674-.153.764-.28 1.706-.382 2.827.84-2.19 1.783-3.973 2.827-5.348s2.069-2.356 3.075-2.942c1.006-.586 1.929-.879 2.77-.879 1.655 0 2.483.828 2.483 2.483 0 .331-.115 1.133-.344 2.407-.204 1.019-.306 1.655-.306 1.91 0 .891.318 1.337.955 1.337.267 0 .563-.079.887-.236.196-1.107.537-2.124 1.023-3.05.815-1.554 1.872-2.751 3.171-3.591 1.299-.84 2.661-1.261 4.088-1.261 1.401 0 2.49.414 3.266 1.242.777.828 1.165 1.891 1.165 3.19 0 1.07-.236 1.974-.707 2.712-.471.739-1.089 1.108-1.853 1.108-.484 0-.872-.115-1.165-.344-.293-.229-.439-.548-.439-.955 0-.178.025-.382.076-.611l.115-.497c.127-.382.191-.739.191-1.07 0-.331-.083-.586-.248-.764-.166-.178-.401-.267-.707-.267-.586 0-1.133.261-1.643.783-.509.522-.917 1.229-1.223 2.12-.306.891-.458 1.872-.458 2.942 0 2.954 1.286 4.432 3.859 4.432 1.044 0 2.171-.35 3.381-1.051 1.038-.601 2.062-1.459 3.071-2.576-.15-1.039-.225-2.16-.225-3.365 0-3.107.401-6.647 1.203-10.621.802-3.973 1.987-7.386 3.553-10.238 1.566-2.853 3.432-4.279 5.597-4.279 1.223 0 2.184.567 2.884 1.7.7 1.133 1.051 2.757 1.051 4.871 0 3.031-.84 6.545-2.521 10.544-1.681 3.999-3.96 7.959-6.838 11.881.178 1.044.471 1.789.879 2.235.408.446.942.669 1.605.669 1.044 0 1.961-.299 2.751-.898.553-.419 1.211-1.047 1.976-1.884.401-3.173.939-6.13 1.615-8.871.204-.79.541-1.343 1.012-1.662.471-.318 1.229-.478 2.273-.478 1.095 0 1.643.446 1.643 1.337 0 .127-.025.369-.076.726-1.146 5.45-1.834 10.022-2.063 13.715-.051.815-.293 1.388-.726 1.719-.433.331-1.108.497-2.025.497-.815 0-1.375-.166-1.681-.497-.264-.286-.414-.715-.45-1.287zm-114.867-10.823c-.649 1.095-.974 2.42-.974 3.973v.076c1.503-.357 2.687-.891 3.553-1.605.866-.713 1.299-1.541 1.299-2.483 0-.484-.134-.872-.401-1.165-.267-.293-.63-.439-1.089-.439-.942 0-1.738.548-2.388 1.643zm46.532-17.44c-.599 1.515-1.152 3.572-1.662 6.17-.509 2.598-.891 5.438-1.146 8.519 1.681-3.082 3.024-5.801 4.03-8.156 1.006-2.356 1.509-4.451 1.509-6.284 0-.815-.096-1.439-.287-1.872-.191-.433-.452-.649-.783-.649-.509 0-1.063.758-1.662 2.273zm1.776 25.004c.611-.662 1.019-1.617 1.223-2.865-.79-.535-1.394-1.235-1.815-2.101-.42-.866-.63-1.783-.63-2.751 0-.357.051-.84.153-1.452h-.115c-1.044 0-1.917.516-2.617 1.547s-1.051 2.413-1.051 4.145c0 1.452.274 2.56.821 3.324.548.764 1.191 1.146 1.929 1.146.79 0 1.49-.331 2.101-.993zm13.199-7.564c-.649 1.095-.974 2.42-.974 3.973v.076c1.503-.357 2.687-.891 3.553-1.605.866-.713 1.299-1.541 1.299-2.483 0-.484-.134-.872-.401-1.165-.267-.293-.63-.439-1.089-.439-.942 0-1.738.548-2.388 1.643zm49.225-16.542c-.739 2.114-1.388 4.737-1.948 7.87s-.866 6.138-.917 9.016c1.808-2.98 3.247-5.966 4.317-8.959 1.07-2.993 1.605-5.724 1.605-8.195 0-1.936-.357-2.903-1.07-2.903-.586 0-1.248 1.057-1.987 3.171zm7.526 7.889c-.535-.497-.802-1.191-.802-2.082 0-.891.35-1.636 1.051-2.235.7-.599 1.573-.898 2.617-.898.942 0 1.706.229 2.292.688.586.458.879 1.108.879 1.948 0 1.019-.331 1.827-.993 2.426-.662.599-1.541.898-2.636.898-1.07 0-1.872-.248-2.407-.745z" id="b"/><filter x="-.8%" y="-2.8%" width="103.1%" height="111.1%" filterUnits="objectBoundingBox" id="a"><feOffset dx="1" dy="1" in="SourceAlpha" result="shadowOffsetOuter1"/><feGaussianBlur stdDeviation=".5" in="shadowOffsetOuter1" result="shadowBlurOuter1"/><feColorMatrix values="0 0 0 0 1 0 0 0 0 1 0 0 0 0 1 0 0 0 0.9 0" in="shadowBlurOuter1"/></filter><path d="M200.096 29.449c-.795.363-1.88.544-3.255.544-.127 0-.84-.038-2.139-.115.28 1.35.503 2.884.669 4.603.166 1.719.248 3.432.248 5.138 0 2.751-.465 4.852-1.394 6.304-.93 1.452-2.12 2.178-3.572 2.178-1.834 0-3.139-1.299-3.916-3.897-.777-2.598-1.165-6.52-1.165-11.767 0-1.35.038-2.712.115-4.088-.229.025-.599.038-1.108.038-.688 0-1.248.013-1.681.038.255 1.885.452 3.693.592 5.425.14 1.732.21 3.655.21 5.769 0 2.751-.465 4.852-1.394 6.304-.93 1.452-2.12 2.178-3.572 2.178-1.834 0-3.139-1.299-3.916-3.897-.686-2.293-1.069-5.617-1.149-9.974-1.579 1.326-3.087 1.989-4.524 1.989-1.655 0-2.859-.586-3.61-1.757-.751-1.172-1.127-2.725-1.127-4.661 0-1.146.146-2.617.439-4.412.293-1.796.669-3.47 1.127-5.024.229-.815.535-1.375.917-1.681.382-.306.993-.458 1.834-.458 1.299 0 1.948.433 1.948 1.299 0 .637-.242 2.114-.726 4.432-.611 2.802-.917 4.699-.917 5.692 0 .764.102 1.35.306 1.757.204.408.548.611 1.031.611.458 0 1.031-.318 1.719-.955.447-.414.99-.983 1.63-1.708.162-3.909.631-7.854 1.407-11.835.981-5.03 2.349-9.188 4.107-12.473 1.757-3.285 3.744-4.928 5.96-4.928 1.146 0 2.044.478 2.693 1.433.649.955.974 2.324.974 4.107 0 2.776-.745 5.864-2.235 9.264-1.49 3.4-4.12 6.972-7.889 10.716-.229 2.241-.344 4.419-.344 6.533 0 2.623.089 5.317.267 8.08.178 2.763.471 4.145.879 4.145.382 0 .688-.318.917-.955.229-.637.344-1.643.344-3.018 0-2.496-.096-4.705-.287-6.628-.191-1.923-.414-3.47-.669-4.642-.051-.178-.076-.446-.076-.802 0-1.095.439-1.999 1.318-2.712.879-.713 2.044-1.082 3.496-1.108h1.452c.484-4.228 1.28-8.207 2.388-11.939 1.108-3.731 2.458-6.743 4.05-9.035 1.592-2.292 3.305-3.438 5.138-3.438 1.197 0 2.133.535 2.808 1.605.675 1.07 1.012 2.509 1.012 4.317 0 2.241-.42 4.75-1.261 7.526-.84 2.776-2.082 5.38-3.725 7.813-1.643 2.432-3.597 4.26-5.864 5.482-.178 1.706-.267 3.476-.267 5.31 0 2.623.089 5.317.267 8.08.178 2.763.471 4.145.879 4.145.382 0 .688-.318.917-.955.229-.637.344-1.643.344-3.018 0-1.987-.102-3.884-.306-5.692-.204-1.808-.42-3.285-.649-4.432-.051-.204-.076-.484-.076-.84 0-1.044.357-1.929 1.07-2.655.713-.726 1.528-1.089 2.445-1.089.866 0 1.662-.032 2.388-.096s1.191-.108 1.394-.134c.457-.054.829-.093 1.116-.119v-3.527l6.904 5.844-6.904 5.844v-4.078zm-62.279 6.389c-1.019-.127-1.719-.395-2.101-.802-.382-.408-.548-1.07-.497-1.987.178-2.521.599-5.635 1.261-9.341.662-3.706 1.464-7.278 2.407-10.716.178-.637.535-1.082 1.07-1.337.535-.255 1.235-.382 2.101-.382 1.554 0 2.33.433 2.33 1.299 0 .357-.076.764-.229 1.223-.662 2.038-1.324 4.769-1.987 8.195-.662 3.426-1.133 6.692-1.414 9.799.764.076 1.63.115 2.598.115 4.457 0 7.787-1.35 9.99-4.05 2.203-2.7 3.305-6.304 3.305-10.812 0-3.031-.866-5.374-2.598-7.029-1.732-1.655-4.177-2.483-7.335-2.483-2.038 0-4.056.318-6.055.955-1.999.637-3.801 1.477-5.406 2.521-.331.229-.688.344-1.07.344-.433 0-.777-.185-1.031-.554-.255-.369-.382-.821-.382-1.356 0-.611.102-1.114.306-1.509.204-.395.548-.758 1.031-1.089 1.757-1.197 3.82-2.108 6.189-2.732 2.369-.624 4.648-.936 6.838-.936 3.107 0 5.794.541 8.061 1.624 2.267 1.082 4.011 2.668 5.234 4.756 1.223 2.088 1.834 4.61 1.834 7.564 0 3.846-.764 7.201-2.292 10.067-1.528 2.865-3.757 5.087-6.686 6.666-2.929 1.579-6.418 2.369-10.468 2.369-1.477 0-3.145-.127-5.005-.382zm29.226-20.878c-.535-.497-.802-1.191-.802-2.082 0-.891.35-1.636 1.051-2.235.7-.599 1.573-.898 2.617-.898.942 0 1.706.229 2.292.688.586.458.879 1.108.879 1.948 0 1.019-.331 1.827-.993 2.426-.662.599-1.541.898-2.636.898-1.07 0-1.872-.248-2.407-.745zm15.721-8.729c-.624 1.554-1.242 3.617-1.853 6.189s-1.133 5.31-1.566 8.214c1.936-2.292 3.394-4.782 4.374-7.469.981-2.687 1.471-5.126 1.471-7.316 0-.637-.076-1.121-.229-1.452-.153-.331-.344-.497-.573-.497-.458 0-1 .777-1.624 2.33zm12.187.344c-.726 1.783-1.439 4.113-2.139 6.991-.7 2.878-1.28 5.858-1.738 8.94 1.452-1.146 2.681-2.674 3.687-4.584 1.006-1.91 1.757-3.909 2.254-5.998.497-2.088.745-3.986.745-5.692 0-1.554-.318-2.33-.955-2.33-.509 0-1.127.891-1.853 2.674z" id="d"/><filter x="-1.3%" y="-2.1%" width="105.4%" height="108.3%" filterUnits="objectBoundingBox" id="c"><feOffset dx="1" dy="1" in="SourceAlpha" result="shadowOffsetOuter1"/><feGaussianBlur stdDeviation=".5" in="shadowOffsetOuter1" result="shadowBlurOuter1"/><feColorMatrix values="0 0 0 0 1 0 0 0 0 1 0 0 0 0 1 0 0 0 0.9 0" in="shadowBlurOuter1"/></filter></defs><g fill="none"><use fill="#000" filter="url(#a)" xlink:href="#b"/><use fill="#CEC2BD" xlink:href="#b"/><use fill="#000" filter="url(#c)" xlink:href="#d"/><use fill="#9F9793" xlink:href="#d"/></g></svg>
