<svg width="323" height="82" viewBox="0 0 323 82" xmlns="http://www.w3.org/2000/svg" xmlns:xlink="http://www.w3.org/1999/xlink"><title></title><desc></desc><defs><path d="M184.82 52.569c-.34.258-.684.505-1.033.74-1.963 1.322-4.189 1.983-6.678 1.983-3.421 0-5.958-1.555-7.611-4.666-.174-.328-.339-.665-.495-1.013-1.557 1.599-3.336 2.879-5.337 3.842-2.547 1.225-5.006 1.837-7.377 1.837-3.81 0-6.775-1.079-8.894-3.237-1.558-1.586-2.543-3.545-2.955-5.877-1.115.438-2.278.658-3.489.658-2.061 0-3.626-.525-4.695-1.575-1.069-1.05-1.604-2.469-1.604-4.257 0-.583.058-1.166.175-1.75.078-.778.117-1.302.117-1.575 0-.622-.214-.933-.642-.933-.583 0-1.351.651-2.304 1.954-.953 1.302-1.895 3.023-2.829 5.161-.933 2.138-1.691 4.393-2.274 6.765-.428 1.827-.923 3.062-1.487 3.703-.564.642-1.448.962-2.654.962-1.477 0-2.517-.778-3.12-2.333-.197-.509-.362-1.117-.495-1.826-.896.672-1.898 1.319-3.005 1.942-2.624 1.477-5.433 2.216-8.427 2.216-4.082 0-7.251-1.108-9.506-3.324-1.999-1.965-3.112-4.571-3.339-7.819-1.136.185-2.317.303-3.543.354-.778 3.227-2.245 5.832-4.403 7.815-2.158 1.983-4.539 2.974-7.144 2.974-3.927 0-6.785-1.497-8.573-4.491-.228-.382-.442-.786-.641-1.211-1.334 1.46-2.744 2.699-4.229 3.719-1.925 1.322-4.112 1.983-6.561 1.983-1.983 0-3.48-.573-4.491-1.72-1.011-1.147-1.516-2.809-1.516-4.986 0-1.089.272-3.033.816-5.832.505-2.449.758-4.141.758-5.074 0-.622-.214-.933-.642-.933-.505 0-1.225.651-2.158 1.954-.933 1.302-1.866 3.023-2.799 5.161-.933 2.138-1.691 4.393-2.274 6.765-.428 1.866-.923 3.11-1.487 3.732-.564.622-1.468.933-2.712.933-1.283 0-2.245-.612-2.887-1.837-.642-1.225-.962-2.712-.962-4.461 0-1.477.194-3.616.583-6.415.311-2.488.467-4.121.467-4.899 0-.622-.214-.933-.642-.933-.583 0-1.322.7-2.216 2.1-.894 1.4-1.759 3.188-2.595 5.365-.836 2.177-1.507 4.316-2.012 6.415-.428 1.827-.923 3.062-1.487 3.703-.564.642-1.448.962-2.654.962-1.477 0-2.517-.778-3.12-2.333-.197-.509-.362-1.117-.495-1.826-.896.672-1.898 1.319-3.005 1.942-2.624 1.477-5.433 2.216-8.427 2.216-4.082 0-7.251-1.108-9.506-3.324-2.255-2.216-3.383-5.249-3.383-9.098 0-2.683.564-5.181 1.691-7.494 1.128-2.313 2.692-4.15 4.695-5.511 2.002-1.361 4.267-2.041 6.794-2.041 2.255 0 4.063.671 5.424 2.012 1.361 1.341 2.041 3.159 2.041 5.453 0 2.683-.962 4.986-2.887 6.911-1.925 1.925-5.181 3.451-9.769 4.578.972 1.788 2.819 2.683 5.54 2.683 1.75 0 3.742-.612 5.978-1.837 1.633-.894 3.105-1.991 4.416-3.29.102-4.63.817-9.045 2.145-13.244.35-1.128.923-1.954 1.72-2.479.797-.525 1.915-.787 3.353-.787.778 0 1.322.097 1.633.292.311.194.467.564.467 1.108 0 .622-.292 2.022-.875 4.199-.389 1.555-.7 2.906-.933 4.053-.233 1.147-.428 2.576-.583 4.287 1.05-3.033 2.304-5.599 3.762-7.698 1.458-2.1 2.955-3.664 4.491-4.695 1.536-1.03 2.984-1.545 4.345-1.545 1.361 0 2.323.311 2.887.933.564.622.846 1.575.846 2.858 0 1.244-.369 3.499-1.108 6.765-.311 1.4-.525 2.449-.642 3.149 1.944-4.782 4.102-8.262 6.474-10.439 2.372-2.177 4.588-3.266 6.648-3.266 2.527 0 3.791 1.264 3.791 3.791 0 1.516-.428 4.257-1.283 8.223-.739 3.383-1.108 5.618-1.108 6.707 0 1.555.564 2.333 1.691 2.333.778 0 1.701-.476 2.77-1.429.921-.82 2.109-2.081 3.563-3.781-.256-1.765-.385-3.722-.385-5.871 0-5.016.622-10.468 1.866-16.359 1.244-5.89 3.062-10.906 5.453-15.047 2.391-4.141 5.239-6.211 8.544-6.211 1.788 0 3.227.768 4.316 2.304 1.089 1.536 1.633 3.528 1.633 5.978 0 3.188-.603 6.357-1.808 9.506s-3.208 6.454-6.007 9.914c2.605.194 4.724 1.273 6.357 3.237 1.633 1.963 2.605 4.384 2.916 7.261 1.119-.071 2.37-.245 3.751-.521.256-.85.58-1.678.973-2.483 1.128-2.313 2.692-4.15 4.695-5.511 2.002-1.361 4.267-2.041 6.794-2.041 2.255 0 4.063.671 5.424 2.012 1.361 1.341 2.041 3.159 2.041 5.453 0 2.683-.962 4.986-2.887 6.911-1.925 1.925-5.181 3.451-9.769 4.578.972 1.788 2.819 2.683 5.54 2.683 1.75 0 3.742-.612 5.978-1.837 1.633-.894 3.105-1.991 4.416-3.29.102-4.63.817-9.045 2.145-13.244.35-1.128.923-1.954 1.72-2.479.797-.525 1.915-.787 3.353-.787.778 0 1.322.097 1.633.292.311.194.467.564.467 1.108 0 .622-.292 2.022-.875 4.199-.389 1.555-.7 2.916-.933 4.082-.233 1.166-.428 2.605-.583 4.316 1.283-3.344 2.722-6.065 4.316-8.165 1.594-2.1 3.159-3.596 4.695-4.491 1.536-.894 2.945-1.341 4.228-1.341 2.527 0 3.791 1.264 3.791 3.791 0 .505-.175 1.73-.525 3.674-.311 1.555-.467 2.527-.467 2.916 0 1.361.486 2.041 1.458 2.041.408 0 .859-.12 1.354-.36.3-1.69.82-3.242 1.562-4.655 1.244-2.372 2.858-4.199 4.841-5.482 1.983-1.283 4.063-1.925 6.24-1.925 2.138 0 3.801.632 4.986 1.895 1.186 1.264 1.779 2.887 1.779 4.87 0 1.633-.36 3.013-1.079 4.141-.719 1.128-1.662 1.691-2.829 1.691-.739 0-1.332-.175-1.779-.525-.447-.35-.671-.836-.671-1.458 0-.272.039-.583.117-.933l.175-.758c.194-.583.292-1.128.292-1.633 0-.505-.126-.894-.379-1.166-.253-.272-.612-.408-1.079-.408-.894 0-1.73.399-2.508 1.196-.778.797-1.4 1.876-1.866 3.237-.467 1.361-.7 2.858-.7 4.491 0 4.51 1.963 6.765 5.89 6.765 1.594 0 3.315-.535 5.161-1.604 1.584-.917 3.147-2.228 4.689-3.932-.229-1.585-.344-3.298-.344-5.137 0-4.743.612-10.148 1.837-16.213 1.225-6.065 3.033-11.275 5.424-15.63 2.391-4.355 5.239-6.532 8.544-6.532 1.866 0 3.334.865 4.403 2.595 1.069 1.73 1.604 4.209 1.604 7.436 0 4.627-1.283 9.992-3.849 16.096-2.566 6.104-6.046 12.15-10.439 18.138.272 1.594.719 2.731 1.341 3.412.622.68 1.439 1.021 2.449 1.021 1.594 0 2.994-.457 4.199-1.371.844-.639 1.849-1.598 3.016-2.876.612-4.844 1.434-9.358 2.466-13.542.311-1.205.826-2.051 1.545-2.537.719-.486 1.876-.729 3.47-.729 1.672 0 2.508.68 2.508 2.041 0 .194-.039.564-.117 1.108-1.75 8.32-2.799 15.299-3.149 20.937-.078 1.244-.447 2.119-1.108 2.624-.661.505-1.691.758-3.091.758-1.244 0-2.1-.253-2.566-.758-.403-.437-.632-1.092-.687-1.965zm-175.352-16.523c-.991 1.672-1.487 3.694-1.487 6.065v.117c2.294-.544 4.102-1.361 5.424-2.449 1.322-1.089 1.983-2.352 1.983-3.791 0-.739-.204-1.332-.612-1.779-.408-.447-.962-.671-1.662-.671-1.439 0-2.654.836-3.645 2.508zm71.034-26.623c-.914 2.313-1.759 5.453-2.537 9.419s-1.361 8.301-1.75 13.005c2.566-4.705 4.617-8.855 6.153-12.451 1.536-3.596 2.304-6.794 2.304-9.594 0-1.244-.146-2.197-.437-2.858-.292-.661-.69-.991-1.196-.991-.778 0-1.623 1.157-2.537 3.47zm2.712 38.17c.933-1.011 1.555-2.469 1.866-4.374-1.205-.816-2.129-1.886-2.77-3.208-.642-1.322-.962-2.722-.962-4.199 0-.544.078-1.283.233-2.216h-.175c-1.594 0-2.926.787-3.995 2.362-1.069 1.575-1.604 3.684-1.604 6.328 0 2.216.418 3.907 1.254 5.074.836 1.166 1.818 1.75 2.945 1.75 1.205 0 2.274-.505 3.208-1.516zm20.15-11.547c-.991 1.672-1.487 3.694-1.487 6.065v.117c2.294-.544 4.102-1.361 5.424-2.449 1.322-1.089 1.983-2.352 1.983-3.791 0-.739-.204-1.332-.612-1.779-.408-.447-.962-.671-1.662-.671-1.439 0-2.654.836-3.645 2.508zm75.145-25.253c-1.128 3.227-2.119 7.232-2.974 12.014-.855 4.782-1.322 9.37-1.4 13.764 2.76-4.549 4.957-9.108 6.59-13.676s2.449-8.738 2.449-12.51c0-2.955-.544-4.432-1.633-4.432-.894 0-1.905 1.614-3.033 4.841zm11.489 12.043c-.816-.758-1.225-1.818-1.225-3.178 0-1.361.535-2.498 1.604-3.412 1.069-.914 2.401-1.371 3.995-1.371 1.439 0 2.605.35 3.499 1.05.894.7 1.341 1.691 1.341 2.974 0 1.555-.505 2.79-1.516 3.703-1.011.914-2.352 1.371-4.024 1.371-1.633 0-2.858-.379-3.674-1.137z" id="b"/><filter x="-3.5%" y="-9.1%" width="107.1%" height="125.4%" filterUnits="objectBoundingBox" id="a"><feOffset dy="2" in="SourceAlpha" result="shadowOffsetOuter1"/><feGaussianBlur stdDeviation="2" in="shadowOffsetOuter1" result="shadowBlurOuter1"/><feColorMatrix values="0 0 0 0 0.564705882 0 0 0 0 0 0 0 0 0 0 0 0 0 0.1 0" in="shadowBlurOuter1"/></filter><path d="M305.46 44.955c-1.214.553-2.87.83-4.969.83-.194 0-1.283-.058-3.266-.175.428 2.061.768 4.403 1.021 7.028.253 2.624.379 5.239.379 7.844 0 4.199-.71 7.407-2.129 9.623-1.419 2.216-3.237 3.324-5.453 3.324-2.799 0-4.792-1.983-5.978-5.949-1.186-3.966-1.779-9.953-1.779-17.963 0-2.061.058-4.141.175-6.24-.35.039-.914.058-1.691.058-1.05 0-1.905.019-2.566.058.389 2.877.69 5.638.904 8.281.214 2.644.321 5.579.321 8.806 0 4.199-.71 7.407-2.129 9.623-1.419 2.216-3.237 3.324-5.453 3.324-2.799 0-4.792-1.983-5.978-5.949-1.047-3.5-1.631-8.575-1.754-15.225-2.411 2.024-4.713 3.036-6.906 3.036-2.527 0-4.364-.894-5.511-2.683-1.147-1.788-1.72-4.16-1.72-7.115 0-1.75.224-3.995.671-6.736.447-2.741 1.021-5.297 1.72-7.669.35-1.244.816-2.1 1.4-2.566.583-.467 1.516-.7 2.799-.7 1.983 0 2.974.661 2.974 1.983 0 .972-.369 3.227-1.108 6.765-.933 4.277-1.4 7.173-1.4 8.69 0 1.166.156 2.061.467 2.683.311.622.836.933 1.575.933.7 0 1.575-.486 2.624-1.458.682-.631 1.512-1.501 2.489-2.608.247-5.967.963-11.989 2.148-18.066 1.497-7.679 3.587-14.026 6.269-19.041 2.683-5.016 5.715-7.523 9.098-7.523 1.75 0 3.12.729 4.112 2.187.991 1.458 1.487 3.548 1.487 6.269 0 4.238-1.137 8.952-3.412 14.143-2.274 5.191-6.289 10.643-12.043 16.359-.35 3.421-.525 6.746-.525 9.973 0 4.005.136 8.116.408 12.335.272 4.219.719 6.328 1.341 6.328.583 0 1.05-.486 1.4-1.458.35-.972.525-2.508.525-4.607 0-3.81-.146-7.183-.437-10.119-.292-2.935-.632-5.297-1.021-7.086-.078-.272-.117-.68-.117-1.225 0-1.672.671-3.052 2.012-4.141s3.12-1.652 5.336-1.691h2.216c.739-6.454 1.954-12.529 3.645-18.225 1.691-5.696 3.752-10.293 6.182-13.793 2.43-3.499 5.045-5.249 7.844-5.249 1.827 0 3.256.816 4.287 2.449 1.03 1.633 1.545 3.83 1.545 6.59 0 3.421-.642 7.251-1.925 11.489s-3.178 8.213-5.686 11.926c-2.508 3.713-5.492 6.503-8.952 8.369-.272 2.605-.408 5.307-.408 8.106 0 4.005.136 8.116.408 12.335.272 4.219.719 6.328 1.341 6.328.583 0 1.05-.486 1.4-1.458.35-.972.525-2.508.525-4.607 0-3.033-.156-5.929-.467-8.69-.311-2.76-.642-5.016-.991-6.765-.078-.311-.117-.739-.117-1.283 0-1.594.544-2.945 1.633-4.053s2.333-1.662 3.732-1.662c1.322 0 2.537-.049 3.645-.146 1.108-.097 1.818-.165 2.129-.204.698-.082 1.266-.143 1.703-.181v-5.384l10.54 8.921-10.54 8.921v-6.226zm-95.074 9.753c-1.555-.194-2.624-.603-3.208-1.225-.583-.622-.836-1.633-.758-3.033.272-3.849.914-8.602 1.925-14.259 1.011-5.657 2.236-11.11 3.674-16.359.272-.972.816-1.652 1.633-2.041.816-.389 1.886-.583 3.208-.583 2.372 0 3.558.661 3.558 1.983 0 .544-.117 1.166-.35 1.866-1.011 3.11-2.022 7.28-3.033 12.51-1.011 5.229-1.73 10.216-2.158 14.959 1.166.117 2.488.175 3.966.175 6.804 0 11.888-2.061 15.251-6.182 3.363-4.121 5.045-9.623 5.045-16.505 0-4.627-1.322-8.204-3.966-10.731-2.644-2.527-6.376-3.791-11.197-3.791-3.11 0-6.192.486-9.244 1.458-3.052.972-5.803 2.255-8.252 3.849-.505.35-1.05.525-1.633.525-.661 0-1.186-.282-1.575-.846-.389-.564-.583-1.254-.583-2.07 0-.933.156-1.701.467-2.304.311-.603.836-1.157 1.575-1.662 2.683-1.827 5.832-3.217 9.448-4.17 3.616-.953 7.096-1.429 10.439-1.429 4.743 0 8.845.826 12.306 2.479 3.46 1.652 6.124 4.073 7.99 7.261 1.866 3.188 2.799 7.037 2.799 11.547 0 5.871-1.166 10.993-3.499 15.367-2.333 4.374-5.735 7.766-10.206 10.177-4.471 2.411-9.798 3.616-15.98 3.616-2.255 0-4.802-.194-7.64-.583zm44.615-31.872c-.816-.758-1.225-1.818-1.225-3.178 0-1.361.535-2.498 1.604-3.412 1.069-.914 2.401-1.371 3.995-1.371 1.439 0 2.605.35 3.499 1.05.894.7 1.341 1.691 1.341 2.974 0 1.555-.505 2.79-1.516 3.703-1.011.914-2.352 1.371-4.024 1.371-1.633 0-2.858-.379-3.674-1.137zm23.999-13.326c-.953 2.372-1.895 5.521-2.829 9.448-.933 3.927-1.73 8.106-2.391 12.539 2.955-3.499 5.181-7.3 6.678-11.402 1.497-4.102 2.245-7.825 2.245-11.168 0-.972-.117-1.711-.35-2.216-.233-.505-.525-.758-.875-.758-.7 0-1.526 1.186-2.479 3.558zm18.604.525c-1.108 2.722-2.197 6.279-3.266 10.673-1.069 4.393-1.954 8.942-2.654 13.647 2.216-1.75 4.092-4.082 5.628-6.998 1.536-2.916 2.683-5.968 3.441-9.156.758-3.188 1.137-6.085 1.137-8.69 0-2.372-.486-3.558-1.458-3.558-.778 0-1.72 1.361-2.829 4.082z" id="d"/><filter x="-6.2%" y="-6.8%" width="112.4%" height="119.1%" filterUnits="objectBoundingBox" id="c"><feOffset dy="2" in="SourceAlpha" result="shadowOffsetOuter1"/><feGaussianBlur stdDeviation="2" in="shadowOffsetOuter1" result="shadowBlurOuter1"/><feColorMatrix values="0 0 0 0 0.564705882 0 0 0 0 0 0 0 0 0 0 0 0 0 0.1 0" in="shadowBlurOuter1"/></filter></defs><g fill="none"><g transform="translate(3 2)"><use fill="#000" filter="url(#a)" xlink:href="#b"/><use fill="#FEFEFE" xlink:href="#b"/></g><g transform="translate(3 2)"><use fill="#000" filter="url(#c)" xlink:href="#d"/><use fill="#303030" xlink:href="#d"/></g></g></svg>
