<?xml version="1.0" encoding="UTF-8"?>
<svg width="199px" height="183px" viewBox="0 0 199 183" version="1.1" xmlns="http://www.w3.org/2000/svg" xmlns:xlink="http://www.w3.org/1999/xlink">
    <defs>
        <rect id="path-1" x="0" y="0.7" width="33.4" height="16.2"></rect>
        <rect id="path-3" x="0" y="0.3" width="25.4" height="17.2"></rect>
        <rect id="path-5" x="0.5" y="0.5" width="23.5" height="27.3"></rect>
        <rect id="path-7" x="0.2" y="0.8" width="7.8" height="6.4"></rect>
        <rect id="path-9" x="0.9" y="0.2" width="7.7" height="7.2"></rect>
        <rect id="path-11" x="0.5" y="0" width="15.8" height="8.6"></rect>
        <rect id="path-13" x="0" y="0.9" width="5.7" height="5"></rect>
        <rect id="path-15" x="0.1" y="0.6" width="128.9" height="36.5"></rect>
        <rect id="path-17" x="0.5" y="0.8" width="18" height="44.6"></rect>
        <rect id="path-19" x="0.6" y="0.5" width="44.2" height="31.6"></rect>
        <rect id="path-21" x="0.1" y="0.2" width="26.2" height="44.2"></rect>
        <rect id="path-23" x="0.7" y="0.6" width="117.3" height="111.9"></rect>
        <rect id="path-25" x="0.5" y="0.2" width="13.1" height="5.5"></rect>
        <rect id="path-27" x="0.9" y="0.2" width="14.5" height="9.9"></rect>
        <rect id="path-29" x="0.1" y="0.9" width="112.9" height="64.1"></rect>
        <rect id="path-31" x="0" y="0.9" width="93.6" height="47.5"></rect>
        <rect id="path-33" x="0" y="0.9" width="91.6" height="46.5"></rect>
        <rect id="path-35" x="0" y="0.9" width="89.6" height="45.4"></rect>
        <rect id="path-37" x="0.1" y="0.4" width="50.2" height="20.7"></rect>
        <rect id="path-39" x="0.8" y="0.9" width="30.1" height="23.2"></rect>
        <rect id="path-41" x="0.9" y="0.5" width="29.7" height="10.3"></rect>
        <rect id="path-43" x="0" y="0.8" width="5.5" height="14.7"></rect>
        <rect id="path-45" x="0.1" y="0.5" width="39.4" height="35.7"></rect>
        <rect id="path-47" x="0.9" y="0.7" width="133.7" height="42.5"></rect>
        <rect id="path-49" x="0.1" y="0.1" width="157.3" height="53.1"></rect>
        <rect id="path-51" x="0.4" y="0.4" width="50.5" height="34.2"></rect>
        <rect id="path-53" x="0.8" y="0.1" width="50.1" height="35"></rect>
        <rect id="path-55" x="0.1" y="0.6" width="156.3" height="46"></rect>
        <rect id="path-57" x="0.6" y="0.2" width="20.2" height="3"></rect>
        <rect id="path-59" x="0.6" y="0.1" width="21.7" height="5.3"></rect>
        <rect id="path-61" x="0.4" y="0" width="12.3" height="3.9"></rect>
        <rect id="path-63" x="0.3" y="0.8" width="28.9" height="28.6"></rect>
        <rect id="path-65" x="0.1" y="0.8" width="27.8" height="30.5"></rect>
        <rect id="path-67" x="0.8" y="0.8" width="47.8" height="27.5"></rect>
        <rect id="path-69" x="0.8" y="0" width="35.2" height="13.9"></rect>
        <rect id="path-71" x="0.2" y="0.5" width="47.7" height="25.5"></rect>
        <rect id="path-73" x="0.2" y="0.4" width="36.3" height="11.7"></rect>
        <rect id="path-75" x="0.3" y="0.2" width="2" height="2"></rect>
        <rect id="path-77" x="0.3" y="0.9" width="2" height="2"></rect>
        <rect id="path-79" x="7.10542736e-15" y="0.1" width="64.8" height="9.5"></rect>
        <rect id="path-81" x="0.7" y="0.3" width="47.9" height="9.2"></rect>
    </defs>
    <g id="Concept-2" stroke="none" stroke-width="1" fill="none" fill-rule="evenodd">
        <g id="Home" transform="translate(-904.000000, -662.000000)">
            <g id="HERO" transform="translate(200.000000, 198.000000)">
                <g transform="translate(0.000000, 117.000000)" id="Mask-+-ember-tomster">
                    <g transform="translate(654.000000, 322.000000)">
                        <g id="ember-tomster" transform="translate(51.000000, 27.000000)">
                            <path d="M146.9,152.1 C146,150.9 145,149.8 143.9,148.8 C143.7,148.6 143.4,148.3 143.2,148.1 C143.2,148.1 143.1,148.1 143,148 C142.5,147.8 141.8,147.7 141.1,147.6 C138.2,147.2 135.1,147.1 132,147 C125.7,146.9 119.4,147.1 113.1,147.4 C100.5,148 87.8,149 75.3,150.4 C69,151.1 62.7,151.9 56.5,152.9 C53.4,153.4 50.3,153.9 47.3,154.6 C45.8,154.9 44.3,155.3 42.9,155.7 C42.2,155.9 41.5,156.1 40.9,156.4 C40.6,156.5 40.3,156.6 40.2,156.8 C40.2,156.8 40.1,156.8 40.1,156.9 C39.4,157.9 38.7,158.9 38,160 C37.3,161.1 36.8,162.3 36.2,163.5 C35.1,165.9 34.1,168.4 33.2,170.9 C32.3,173.4 31.3,176 30.4,178.6 C29.9,179.9 29.4,181.2 28.8,182.5 C28.6,183.1 28.3,183.7 28,184.3 L36.5,184.3 C41.1,174 49.8,162.2 57,159.3 C59,158.5 91.2,154.5 112.5,154.5 C120.4,154.5 125.8,155.1 128.8,156.2 C137.5,159.6 154.9,175.7 156.7,184.4 L161.6,184.4 C160.6,178.9 158.6,173.5 156.3,168.3 C153.7,162.3 150.6,156.8 146.9,152.1" id="Shape" fill="#BA8449"></path>
                            <path d="M128.3,19.5 C147.9,17.7 159.4,-2.6 171.3,0.5 C163.3,5.5 155.4,15.5 144.3,31.9 C141.6,35.8 122.9,20 128.3,19.5" id="Shape" fill="#FFF8EE"></path>
                            <g id="Clipped" transform="translate(9.000000, 32.000000)">
                                <mask id="mask-2" fill="white">
                                    <use xlink:href="#path-1"></use>
                                </mask>
                                <g id="D_3_"></g>
                                <g id="Group" opacity="0.3" mask="url(#mask-2)">
                                    <g transform="translate(-1.000000, 0.000000)">
                                        <g transform="translate(0.288100, 0.116200)">
                                            <path d="M17.1,16.7 C15.9,16.7 13.6,16.5 9,15 C7.8,14.6 6.7,14.2 6,13.9 C4.5,13.3 0.6,11.8 0.6,7.2 L0.6,0.5 L7.2,0.5 C8.1,0.5 8.7,0.7 9.2,0.8 C10.6,1 15.1,1.3 16.6,1.4 L17.5,1.5 C18.7,1.5 22.4,1 24,0.8 C26,0.5 26.6,0.4 27.4,0.4 L33.1,0.4 L34,6 C34.4,8.8 32.9,12.3 29.2,13.4 C29,13.5 28.3,13.7 27.7,13.9 C24.2,15.2 20.7,16.4 17.7,16.5 C17.5,16.7 17.3,16.7 17.1,16.7" id="Shape" fill="#FFFFFF"></path>
                                        </g>
                                    </g>
                                </g>
                            </g>
                            <g id="Group" transform="translate(145.000000, 41.000000)">
                                <g id="Clipped">
                                    <mask id="mask-4" fill="white">
                                        <use xlink:href="#path-3"></use>
                                    </mask>
                                    <g id="D_5_"></g>
                                    <g id="Group" opacity="0.3" mask="url(#mask-4)">
                                        <g transform="translate(-1.000000, -1.000000)">
                                            <g transform="translate(0.288100, 0.610400)">
                                                <path d="M13.2,17.8 C11,17.8 8.8,16.9 5.8,14.8 C2.9,12.8 0.7,10.8 0.7,7.3 L0.7,0.6 L7.2,0.6 C8.1,0.6 9,0.8 9.9,1.2 C10.6,1.5 13.3,2.4 14.5,2.7 C14.9,2.7 15.7,2.5 17.3,2.2 C18.1,2 18.6,2 19.3,2 L25,2 L25.9,7.6 C26.3,10.3 25.1,13.7 21.4,15 C21.2,15.1 20.6,15.4 20.2,15.6 C18.4,16.5 16.3,17.5 14.2,17.9 C14,17.8 13.6,17.8 13.2,17.8" id="Shape" fill="#FFFFFF"></path>
                                            </g>
                                        </g>
                                    </g>
                                </g>
                            </g>
                            <path d="M146.9,152.1 C146,150.9 145,149.8 143.9,148.8 C143.7,148.6 143.4,148.3 143.2,148.1 C143.2,148.1 143.1,148.1 143,148 C142.5,147.8 141.8,147.7 141.1,147.6 C138.2,147.2 135.1,147.1 132,147 C125.7,146.9 119.4,147.1 113.1,147.4 C100.5,148 87.8,149 75.3,150.4 C69,151.1 62.7,151.9 56.5,152.9 C53.4,153.4 50.3,153.9 47.3,154.6 C45.8,154.9 44.3,155.3 42.9,155.7 C42.2,155.9 41.5,156.1 40.9,156.4 C40.6,156.5 40.3,156.6 40.2,156.8 C40.2,156.8 40.1,156.8 40.1,156.9 C39.4,157.9 38.7,158.9 38,160 C37.3,161.1 36.8,162.3 36.2,163.5 C35.1,165.9 34.1,168.4 33.2,170.9 C32.3,173.4 31.3,176 30.4,178.6 C29.9,179.9 29.4,181.2 28.8,182.5 C28.6,183.1 28.3,183.7 28,184.3 L36.5,184.3 C41.1,174 49.8,162.2 57,159.3 C59,158.5 91.2,154.5 112.5,154.5 C120.4,154.5 125.8,155.1 128.8,156.2 C137.5,159.6 154.9,175.7 156.7,184.4 L161.6,184.4 C160.6,178.9 158.6,173.5 156.3,168.3 C153.7,162.3 150.6,156.8 146.9,152.1" id="Shape" fill="#BA8449"></path>
                            <path d="M160.9,165.8 C158.2,159.8 155.1,154.1 151,148.9 C150,147.6 148.9,146.3 147.7,145.1 C147.4,144.8 147.1,144.5 146.8,144.2 L146.6,144 L146.5,143.9 L146.3,143.7 C146.1,143.6 145.9,143.5 145.8,143.4 C145.5,143.2 145.2,143.1 144.9,143 C143.8,142.6 143,142.5 142.1,142.3 C138.7,141.8 135.5,141.7 132.3,141.6 C125.8,141.5 119.5,141.6 113.1,141.9 C100.3,142.4 87.6,143.4 74.9,144.7 C68.6,145.4 62.2,146.1 55.8,147.1 C52.6,147.6 49.5,148.1 46.3,148.8 C44.7,149.2 43.1,149.5 41.5,150 C40.7,150.2 39.9,150.5 39,150.9 C38.6,151.1 38.1,151.3 37.6,151.6 C37.4,151.8 37.1,151.9 36.8,152.1 C36.5,152.3 36.2,152.6 35.8,153.1 L35.8,153.1 C34.9,154.2 34,155.5 33.2,156.7 C32.4,157.9 31.6,159.2 30.9,160.5 C29.5,163 28.2,165.6 27,168.2 C25.9,170.8 24.8,173.4 23.9,176.1 C23.4,177.4 23,178.7 22.7,180.1 C22.5,180.8 22.3,181.4 22.1,182.1 L21.8,183.1 L21.7,183.6 C21.7,183.7 21.9,183.8 22.3,184.1 L22.4,184.1 L28.2,184.1 C28.5,183.5 28.7,182.9 29,182.3 C29.5,181 30.1,179.7 30.6,178.5 C31.6,175.9 32.5,173.4 33.4,170.8 C34.3,168.3 35.3,165.7 36.4,163.4 C37,162.2 37.6,161.1 38.2,159.9 C38.9,158.8 39.5,157.8 40.3,156.8 C40.3,156.8 40.4,156.8 40.4,156.7 C40.6,156.6 40.9,156.5 41.1,156.3 C41.7,156.1 42.4,155.8 43.1,155.6 C44.5,155.2 46,154.8 47.5,154.5 C50.5,153.8 53.6,153.3 56.7,152.8 C62.9,151.8 69.2,151 75.5,150.3 C88.1,148.9 100.7,147.9 113.3,147.3 C119.6,147 125.9,146.8 132.2,146.9 C135.3,147 138.5,147.1 141.3,147.5 C142,147.6 142.7,147.8 143.2,147.9 C143.3,147.9 143.4,147.9 143.4,148 C143.6,148.2 143.9,148.5 144.1,148.7 C145.2,149.8 146.1,150.9 147.1,152 C150.8,156.7 153.9,162.2 156.5,167.8 C158.8,173 160.8,178.4 161.8,183.9 L166.8,183.9 C166.3,180.8 165.5,177.8 164.6,174.9 C163.4,171.8 162.2,168.8 160.9,165.8 L160.9,165.8 Z" id="Shape" fill="#895B2E"></path>
                            <path d="M128.1,157.7 C125.5,156.7 120.2,156.1 112.6,156.1 C91.2,156.1 59.6,160.1 57.9,160.8 C51.4,163.4 43.3,174.4 38.8,184 L154.7,184 C152.8,176.5 136.7,161.1 128.1,157.7" id="Shape" fill="#FFF8EE"></path>
                            <path d="M128.8,155.8 C125.9,154.7 120.4,154.1 112.5,154.1 C91.2,154.1 59,158.1 57,158.9 C49.7,161.9 41.1,173.6 36.5,183.9 L38.7,183.9 C43.2,174.4 51.3,163.4 57.8,160.7 C59.5,160 91.1,156 112.5,156 C120.1,156 125.4,156.5 128,157.6 C136.6,160.9 152.7,176.4 154.6,183.9 L156.6,183.9 C154.9,175.3 137.5,159.2 128.8,155.8" id="Shape" fill="#E5D0AE"></path>
                            <path d="M168.4,156.7 C167.2,159.2 160.9,165.6 155.6,164.1 C152.8,163.3 153.3,178.1 159.7,184 L171.3,184 C174.5,178.9 179.5,163.3 180.1,161.7 C180.8,159.8 169.6,154.2 168.4,156.7" id="Shape" fill="#BA8449"></path>
                            <path d="M180.7,160.4 C180.5,157.2 178.6,154.9 175.2,154.1 C172.5,153.5 168.9,154 168,155.7 C166.2,159.1 164,163.2 153.1,163.8 C152.4,163.8 151.8,164.5 151.8,165.2 C151.8,165.9 152.5,166.5 153.2,166.5 C164.6,166 167.9,161.6 170.3,157.1 C170.8,156.7 173.5,156.2 175.7,157.1 C177.3,157.8 178,158.9 178.1,160.6 C178.4,166.8 171.9,178.3 168.4,184.1 L171.5,184.1 C175.4,177.3 181,166.8 180.7,160.4" id="Shape" fill="#895B2E"></path>
                            <g id="Clipped" transform="translate(157.000000, 158.000000)">
                                <mask id="mask-6" fill="white">
                                    <use xlink:href="#path-5"></use>
                                </mask>
                                <g id="D_7_"></g>
                                <g id="Group" opacity="0.15" mask="url(#mask-6)" fill="#E3AB5E">
                                    <g transform="translate(0.335000, 0.000000)" id="Shape">
                                        <path d="M0.9,26.3 C8,24.6 14.3,17.5 14.8,7.4 C14.9,5.5 11,1.9 11,0.9 C11,-0.1 22.9,1.1 23.5,3.9 C24,6.7 16.1,23.6 13.4,26.4 C10.8,29.1 -3.3,27.3 0.9,26.3"></path>
                                    </g>
                                </g>
                            </g>
                            <path d="M163.8,149.8 C162.9,156 175,164.5 183.2,164.3 C190,164.1 197.7,160.9 196.6,157.1 C195.5,153.2 188.9,157.8 188.3,155.1 C187.8,152.5 196,147.6 192.7,144 C189.6,140.7 186,149.2 182.4,148 C178.8,146.8 183.1,138.5 178.6,138 C173.3,137.5 175.3,149.3 171.3,149.5 C168.5,149.8 164.1,147.8 163.8,149.8" id="Shape" fill="#FCD4C3"></path>
                            <path d="M163.8,149.8 C162.9,156 175,164.5 183.2,164.3 C190,164.1 197.7,160.9 196.6,157.1 C195.5,153.2 188.9,157.8 188.3,155.1 C187.8,152.5 196,147.6 192.7,144 C189.6,140.7 186,149.2 182.4,148 C178.8,146.8 183.1,138.5 178.6,138 C173.3,137.5 175.3,149.3 171.3,149.5 C168.5,149.8 164.1,147.8 163.8,149.8 L163.8,149.8 Z" id="Shape" stroke="#F8A38F" stroke-width="2"></path>
                            <g id="Clipped" transform="translate(167.000000, 144.000000)">
                                <mask id="mask-8" fill="white">
                                    <use xlink:href="#path-7"></use>
                                </mask>
                                <g id="D_9_"></g>
                                <g id="Group" opacity="0.5" mask="url(#mask-8)">
                                    <g transform="translate(-1.000000, 0.000000)">
                                        <g transform="translate(0.938500, 0.042000)">
                                            <path d="M0.3,5.7 C1.6,6.7 6.3,8 7,6.3 C7.8,4.6 8.4,1.2 7.9,0.7 C7.5,2.3 7,5.3 5.3,6 C4,6.5 1.2,5.9 0.3,5.7" id="Shape" fill="#FCD4C3"></path>
                                        </g>
                                    </g>
                                </g>
                            </g>
                            <g id="Clipped" transform="translate(179.000000, 143.000000)">
                                <mask id="mask-10" fill="white">
                                    <use xlink:href="#path-9"></use>
                                </mask>
                                <g id="D_11_"></g>
                                <g id="Group" opacity="0.5" mask="url(#mask-10)" fill="#FCD4C3">
                                    <g transform="translate(0.459000, 0.042000)" id="Shape">
                                        <path d="M0.7,0.1 C0.5,1.2 -0.4,6.4 2.3,7.1 C4.6,7.7 6.3,6.3 8.1,3.4 C7.1,4.3 4.6,6.5 2.7,5.7 C0.8,4.8 0.6,2.8 0.7,0.1"></path>
                                    </g>
                                </g>
                            </g>
                            <g id="Clipped" transform="translate(168.000000, 155.000000)">
                                <mask id="mask-12" fill="white">
                                    <use xlink:href="#path-11"></use>
                                </mask>
                                <g id="D_13_"></g>
                                <g id="Group" opacity="0.25" mask="url(#mask-12)">
                                    <g transform="translate(-1.000000, -1.000000)">
                                        <g transform="translate(0.876000, 0.958000)">
                                            <path d="M0.7,2.2 C14.3,-4.5 17.1,6.4 16.4,8.6 C11,9.5 1.5,3.9 0.7,2.2" id="Shape" fill="#FCD4C3"></path>
                                        </g>
                                    </g>
                                </g>
                            </g>
                            <g id="Clipped" transform="translate(187.000000, 152.000000)">
                                <mask id="mask-14" fill="white">
                                    <use xlink:href="#path-13"></use>
                                </mask>
                                <g id="D_15_"></g>
                                <g id="Group" opacity="0.5" mask="url(#mask-14)">
                                    <g transform="translate(-1.000000, 0.000000)">
                                        <g transform="translate(0.751000, 0.395500)">
                                            <path d="M1.6,0.5 C-0.7,3.1 0.4,5.2 1.9,5.5 C3.8,5.9 6.3,3.9 5.9,3.9 C5.4,3.9 1.7,5.1 1,3.3 C0.5,1.9 1.3,1.1 1.6,0.5" id="Shape" fill="#FCD4C3"></path>
                                        </g>
                                    </g>
                                </g>
                            </g>
                            <g id="Clipped" transform="translate(30.000000, 144.000000)">
                                <mask id="mask-16" fill="white">
                                    <use xlink:href="#path-15"></use>
                                </mask>
                                <g id="D_17_"></g>
                                <g id="Group" opacity="0.15" mask="url(#mask-16)">
                                    <g transform="translate(-1.000000, 0.000000)">
                                        <g transform="translate(0.834000, 0.166000)">
                                            <path d="M3.2,26.1 C46.9,51.2 133.6,25.7 129,17.5 C122.9,6.6 120.5,-0.2 107.1,0.4 C93.8,1.1 8.2,7.9 4.7,10.5 C1.3,13.2 -2.5,22.8 3.2,26.1" id="Shape" fill="#E3AB5E"></path>
                                        </g>
                                    </g>
                                </g>
                            </g>
                            <path d="M128.3,19.5 C147.9,17.7 159.4,-2.6 171.3,0.5 C163.3,5.5 155.4,15.5 144.3,31.9 C141.6,35.8 122.9,20 128.3,19.5" id="Shape" fill="#FFF8EE"></path>
                            <path d="M128.3,19.5 C147.9,17.7 159.4,-2.6 171.3,0.5 C163.3,5.5 155.4,15.5 144.3,31.9 C141.6,35.8 122.9,20 128.3,19.5 L128.3,19.5 Z" id="Shape" stroke="#E5D0AE" stroke-width="3"></path>
                            <path d="M5.8,15.1 C14.6,6.9 30.5,10.1 43.3,14.7 C50.6,17.3 60.1,15.2 60.7,16.7 C62.3,20.2 52.8,27.4 45,27.2 C37.3,27.1 24.4,12.6 5.8,15.1" id="Shape" fill="#BA8449"></path>
                            <path d="M5.8,15.1 C14.6,6.9 30.5,10.1 43.3,14.7 C50.6,17.3 60.1,15.2 60.7,16.7 C62.3,20.2 52.8,27.4 45,27.2 C37.3,27.1 24.4,12.6 5.8,15.1 L5.8,15.1 Z" id="Shape" stroke="#895B2E" stroke-width="2"></path>
                            <path d="M141.7,29.2 C146.2,30.5 163.3,-3 171.6,0.3 C198,10.8 163.6,51.2 152.7,52.1 C141.7,52.9 139.2,28.4 141.7,29.2" id="Shape" fill="#FCD4C3"></path>
                            <path d="M141.7,29.2 C146.2,30.5 163.3,-3 171.6,0.3 C198,10.8 163.6,51.2 152.7,52.1 C141.7,52.9 139.2,28.4 141.7,29.2 L141.7,29.2 Z" id="Shape" stroke="#F8A38F" stroke-width="2"></path>
                            <path d="M46.3,25.2 C39,28.4 13.1,1.3 2.2,18.7 C-5,30.2 16.8,53.4 32.4,55.9 C48,58.4 50.1,23.5 46.3,25.2" id="Shape" fill="#FCD4C3"></path>
                            <path d="M46.3,25.2 C39,28.4 13.1,1.3 2.2,18.7 C-5,30.2 16.8,53.4 32.4,55.9 C48,58.4 50.1,23.5 46.3,25.2 L46.3,25.2 Z" id="Shape" stroke="#F8A38F" stroke-width="2"></path>
                            <g id="Clipped" transform="translate(144.000000, 6.000000)">
                                <mask id="mask-18" fill="white">
                                    <use xlink:href="#path-17"></use>
                                </mask>
                                <g id="D_19_"></g>
                                <g id="Group" mask="url(#mask-18)" fill="#FCD4C3">
                                    <g transform="translate(0.167000, 0.500500)" id="Shape">
                                        <path d="M17.9,0.3 C16.5,4.9 4.7,16.8 6.3,27 C6.9,30.8 10.9,42 12.6,41.6 C14.3,41.2 18.6,38.5 18.2,39.1 C17.8,39.7 12.2,43.8 10.1,44.9 C8,43.8 -0.9,23.1 0.4,22 C4.3,18.5 16.2,0.5 17.9,0.3"></path>
                                    </g>
                                </g>
                            </g>
                            <g id="Clipped" transform="translate(2.000000, 13.000000)">
                                <mask id="mask-20" fill="white">
                                    <use xlink:href="#path-19"></use>
                                </mask>
                                <g id="D_21_"></g>
                                <g id="Group" mask="url(#mask-20)" fill="#FCD4C3">
                                    <g transform="translate(-0.167000, -0.499500)" id="Shape">
                                        <path d="M0.7,6.9 C8.7,2 23.3,4.1 31.8,12.4 C34.8,15.4 35.7,25.4 28.9,32.2 C26.2,34.9 44.9,22.6 45,19 C45,15.4 43.8,14.4 41,13.4 C30.7,9.6 19.9,0.8 10.5,1 C4.4,1.1 1.6,5.3 0.7,6.9"></path>
                                    </g>
                                </g>
                            </g>
                            <g id="Clipped" transform="translate(145.000000, 4.000000)">
                                <mask id="mask-22" fill="white">
                                    <use xlink:href="#path-21"></use>
                                </mask>
                                <g id="D_23_"></g>
                                <g id="Group" opacity="0.25" mask="url(#mask-22)">
                                    <g transform="translate(0.000000, -1.000000)">
                                        <g transform="translate(0.000000, 0.375000)">
                                            <path d="M20.3,0.8 C38.5,10.8 9.2,26 11.4,44.9 C7.6,44.5 -1.8,26.2 0.5,24.6 C3.7,22.4 17.2,-2.66564548e-13 20.3,0.8" id="Shape" fill="#FCD4C3"></path>
                                        </g>
                                    </g>
                                </g>
                            </g>
                            <path d="M24.9,65.6 C25.2,64.3 25.4,62.9 25.4,61.6 C25.5,60.2 25.6,58.8 25.9,57.5 C26,56.8 26.2,56.1 26.5,55.5 C26.8,54.9 27,54.2 27.2,53.6 C27.7,52.3 28.2,51 28.8,49.8 C31.1,44.7 33.7,39.9 36.9,35.4 C40.1,30.9 43.6,26.7 47.6,23.1 C51.6,19.4 56.3,16.4 61.3,14.4 C66.3,12.3 71.7,11 77.1,10.4 C82.5,9.7 87.9,9.6 93.3,9.7 C98.7,9.8 104.1,10.1 109.5,10.8 C114.9,11.5 120.3,12.7 125.5,14.6 C128.1,15.6 130.6,16.7 133,18.1 C135.4,19.5 137.7,21.2 139.8,23.2 C141.9,25.1 143.7,27.4 145.2,29.8 C146.7,32.2 147.8,34.8 148.8,37.5 C149.7,40.1 150.4,42.8 151,45.5 C151.6,48.2 152,50.8 152.6,53.3 C152.9,54.5 153.3,55.7 153.7,56.9 C154.2,58.1 154.7,59.4 155.1,60.7 C156,63.2 157,65.8 157.9,68.3 C161.4,78.5 164.5,88.9 166.4,99.5 C167.3,104.8 168,110.2 168.1,115.6 C168.2,121 167.7,126.4 166.2,131.6 C165.8,132.9 165.4,134.2 164.9,135.4 C164.4,136.6 163.7,137.8 163.3,139.1 C163.1,139.8 162.9,140.4 162.6,141 C162.3,141.6 161.9,142.2 161.5,142.8 C160.8,143.9 159.9,145.1 159,146.1 C155.5,150.3 151,153.7 146.2,156.3 C141.4,158.9 136.2,160.9 131,162.4 C125.7,163.9 120.5,165.1 115.1,166.1 C109.7,167.1 104.4,167.8 99.1,168.5 C96.4,168.8 93.7,169.1 91,169.4 L87,169.8 C85.7,169.9 84.3,170 82.9,170.1 C71.9,170.7 60.9,169.1 50.4,166.2 C45.1,164.7 40,162.9 35,160.7 C30,158.5 25.1,156 20.5,153 C18.2,151.5 15.9,149.8 13.8,147.9 C13.3,147.4 12.7,146.9 12.2,146.4 C11.7,145.9 11.3,145.3 10.8,144.8 C9.9,143.7 9,142.6 8.2,141.5 C5.1,136.9 2.6,131.5 1.8,125.9 C0.9,120.2 1.7,114.4 3.3,109.1 C4.9,103.7 7.4,98.8 10,94 C12.7,89.3 15.6,84.7 18.4,80.2 C19.8,77.9 21.1,75.6 22.3,73.3 C23.4,70.3 24.4,68 24.9,65.6 L24.9,65.6 L24.9,65.6 Z M28.9,66.5 C28.2,69.3 27,71.9 25.7,74.4 C24.4,76.9 23,79.2 21.6,81.5 C18.8,86.1 15.9,90.6 13.4,95.2 C10.9,99.8 8.6,104.6 7.2,109.5 C5.8,114.4 5.2,119.5 6,124.5 C6.8,129.4 8.9,134.1 11.9,138.2 C12.6,139.2 13.5,140.2 14.3,141.2 C14.7,141.7 15.2,142.2 15.6,142.6 C16,143.1 16.5,143.5 16.9,143.9 C18.7,145.6 20.8,147.1 23,148.6 C27.4,151.4 32,153.9 36.9,156 C41.7,158.1 46.7,159.9 51.8,161.3 C56.9,162.7 62,163.8 67.2,164.5 C72.4,165.2 77.6,165.4 82.8,165.2 C84.1,165.1 85.4,165 86.7,164.9 L90.7,164.5 C93.3,164.3 96,164 98.7,163.7 C104,163.2 109.3,162.5 114.5,161.6 C119.8,160.7 124.9,159.7 130,158.3 C135.1,156.9 140.1,155.3 144.9,153.2 C149.6,151 154.2,148.3 157.9,144.6 C158.8,143.7 159.7,142.7 160.5,141.7 C160.9,141.2 161.3,140.6 161.7,140.1 C162.1,139.6 162.6,139.1 163,138.5 C163.9,137.4 164.3,136.2 164.9,135 C165.4,133.8 165.8,132.5 166.1,131.2 C167.4,126 167.7,120.6 167.4,115.3 C167,110 166.1,104.7 164.8,99.5 C162.3,89.1 158.6,79.1 154.7,69.2 C153.7,66.7 152.7,64.2 151.7,61.8 L150.1,58.1 C149.6,56.8 149.1,55.4 148.7,54.1 C148,51.4 147.5,48.8 146.9,46.2 C146.4,43.6 145.7,41.1 144.9,38.7 C143.2,33.8 140.7,29.4 137,25.9 C133.4,22.4 128.9,19.7 124.1,17.7 C119.3,15.7 114.1,14.4 108.9,13.5 C103.7,12.6 98.4,12.1 93.1,11.8 C87.8,11.6 82.4,11.5 77.1,12.1 C71.8,12.7 66.6,13.8 61.7,15.9 C56.8,17.9 52.3,20.8 48.5,24.4 C44.6,28 41.5,32.4 39.2,37 C36.8,41.7 35.1,46.7 33.6,51.7 C33.2,52.9 32.9,54.2 32.6,55.5 C32.4,56.1 32.3,56.8 32.1,57.4 C32,57.7 32,58.1 31.9,58.4 C31.8,58.7 31.7,59 31.5,59.3 C31,60.5 30.4,61.7 29.8,62.9 C29.6,64 29.2,65.2 28.9,66.5 L28.9,66.5 L28.9,66.5 Z" id="Shape" fill="#E5D0AE"></path>
                            <path d="M26.9,66.1 C22.7,84.7 -14,114.1 13.9,144.2 C23.4,154.4 54.2,170.1 85.1,167.2 C165.5,159.6 185.8,140.2 151.9,57 C146.4,43.5 152.6,12.3 93.5,10.5 C68.7,9.8 38.9,13.2 26.9,66.1" id="Shape" fill="#FFF8EE"></path>
                            <path d="M40.8,29.7 C43.4,25.7 46.8,22.4 50.6,19.7 C54.4,17 58.7,15 63,13.4 C71.8,10.2 81,9 90.2,8.7 C99.4,8.5 108.7,9.2 117.7,11.5 C122.2,12.7 126.6,14.3 130.8,16.6 C135,18.9 138.9,21.7 142.2,25.2 C145.5,28.7 148.2,32.6 150.3,36.9 C152.4,41.2 153.9,45.7 155,50.2 C156.1,54.8 156.8,59.3 157.4,63.8 C157.7,66.1 158,68.3 158.5,70.4 C158.7,71.5 159,72.5 159.3,73.3 C159.4,73.5 159.5,73.7 159.6,73.9 L159.7,74 L159.8,74.1 L160,74.5 L160.9,76 C165.3,84.1 168.6,93 169.8,102.3 C170.4,106.9 170.5,111.6 170,116.3 C169.5,120.9 168.3,125.5 166.5,129.8 C165.6,131.9 164.6,134 163.4,136.1 C163.1,136.6 162.8,137.1 162.5,137.6 C162.2,138.1 161.9,138.5 161.5,139.1 C161.4,139.2 161.4,139.3 161.3,139.4 C161,139.2 161.7,140.1 159.7,139.4 C159.2,138.5 159.5,138.7 159.4,138.5 C159.4,138.2 159.5,138.1 159.5,137.9 L159.8,137 L160.3,135.4 C161.7,131.1 162.9,126.8 163.4,122.3 C163.6,120.1 163.7,117.9 163.4,115.6 C163.1,113.4 162.5,111.3 161.4,109.5 C161.1,109 160.8,108.6 160.4,108.2 C160,107.8 159.7,107.4 159.3,107 C158.5,106.2 157.7,105.5 156.8,104.8 C155,103.4 153.1,102.3 151.1,101.3 C147,99.5 142.5,98.8 138.1,99 C133.6,99.2 129.2,100.1 124.9,101.3 C122.7,101.9 120.6,102.6 118.4,103.3 C117.3,103.7 116.2,104 115.1,104.3 C114.5,104.5 114,104.6 113.3,104.7 C112.7,104.8 112.2,104.9 111.6,104.9 C107,105.4 102.5,105.7 97.8,105.6 C93.2,105.5 88.6,105 84,104 C79.5,103 75,101.5 70.8,99.6 C66.6,97.6 62.6,95.2 59,92.2 C55.4,89.2 52.2,85.8 49.4,82.1 C43.8,74.6 40.1,65.9 38.3,56.8 C37.4,52.2 37,47.6 37.2,42.9 C37.3,40.6 37.6,38.2 38.1,35.9 C38.7,34.1 39.5,31.8 40.8,29.7 L40.8,29.7 L40.8,29.7 Z M42.8,31 C41.7,32.8 41,34.8 40.5,37 C40,39.1 39.8,41.3 39.6,43.5 C39.4,47.9 39.9,52.4 40.8,56.7 C42.7,65.4 46.4,73.7 51.8,80.7 C54.5,84.2 57.6,87.4 61,90.2 C64.4,93 68.2,95.4 72.2,97.3 C76.2,99.2 80.4,100.6 84.8,101.6 C89.1,102.6 93.6,103.2 98,103.3 C102.5,103.5 106.9,103.3 111.4,102.8 L113.1,102.6 C113.6,102.5 114.1,102.4 114.7,102.3 C115.8,102 116.8,101.7 117.9,101.4 C120.1,100.8 122.3,100.1 124.5,99.6 C128.9,98.5 133.5,97.7 138.2,97.7 C142.8,97.7 147.5,98.5 151.7,100.5 C153.8,101.5 155.8,102.7 157.6,104.1 C158.5,104.8 159.4,105.6 160.2,106.4 C160.6,106.8 161,107.2 161.4,107.6 C161.8,108 162.2,108.5 162.5,109 C163.8,111 164.5,113.3 164.8,115.7 C165.1,118.1 165.1,120.4 164.9,122.7 C164.5,127.3 163.5,131.8 162.2,136.2 L161.7,137.8 L161.5,138.6 C161.5,138.7 161.4,138.9 161.5,138.9 C161.4,138.8 161.7,139.1 161.3,138.2 C159.4,137.5 160.1,138.4 159.9,138.1 L159.9,138.1 C160.1,137.7 160.4,137.2 160.7,136.7 C161,136.2 161.2,135.7 161.5,135.2 C162.5,133.2 163.4,131.2 164.2,129.1 C167.2,120.8 167.8,111.7 166.3,103 C165.6,98.6 164.3,94.4 162.7,90.3 C161.1,86.2 159.2,82.2 157,78.3 L156.2,76.9 L156,76.5 L155.9,76.3 L155.8,76.1 C155.6,75.8 155.5,75.5 155.4,75.2 C154.9,74 154.6,72.7 154.3,71.6 C153.8,69.3 153.4,67 153.1,64.8 C152.4,60.3 151.8,55.9 150.7,51.6 C149.7,47.3 148.3,43.1 146.4,39.2 C144.5,35.3 142.2,31.7 139.2,28.5 C133.4,22.2 125.4,18 116.9,15.5 C108.4,13 99.4,12.2 90.4,12.2 C81.5,12.2 72.5,13.3 64.1,16.1 C59.9,17.5 55.9,19.4 52.2,21.9 C48.4,24.3 45.2,27.3 42.8,31 L42.8,31 L42.8,31 Z" id="Shape" fill="#E5BFA1"></path>
                            <path d="M39.6,29.2 C41.1,26.8 42.9,24.9 44.7,23.1 C46.6,21.3 48.6,19.8 50.7,18.4 C54.9,15.6 59.4,13.4 64.1,11.7 C73.5,8.4 83.4,7.1 93.2,7.3 C102.9,7.6 112.7,8.8 122.1,12.2 C126.8,13.9 131.3,16.1 135.4,19.1 C139.5,22 143.1,25.6 146.1,29.7 C149,33.8 151.2,38.3 152.9,43 C154.5,47.7 155.6,52.5 156.4,57.2 C156.8,59.6 157.1,61.9 157.5,64.3 C157.9,66.6 158.2,69 158.6,71.1 C158.8,72.2 159.1,73.2 159.5,74 L159.6,74.2 L159.7,74.4 L159.9,74.8 L160.3,75.6 L161.2,77.2 C162.3,79.3 163.4,81.5 164.4,83.7 C166.3,88.1 167.9,92.8 169,97.6 C170.1,102.3 170.6,107.2 170.6,112.1 C170.5,121.9 167.8,131.6 162.7,139.9 L162.7,139.9 C162.3,140.5 161.5,140.8 160.9,140.4 C160.3,140 160.1,139.3 160.3,138.8 L160.3,138.8 C161.7,135.2 163.2,131.8 164.3,128.3 C165.5,124.8 166.3,121.2 166.3,117.7 C166.3,114.2 165.4,110.8 163.3,108.1 C163.2,107.9 163,107.7 162.9,107.6 L162.7,107.4 L162.5,107.1 C162.2,106.8 161.9,106.5 161.6,106.2 C161,105.6 160.3,105 159.6,104.5 C158.2,103.4 156.6,102.4 155.1,101.4 C148.8,97.5 142.1,94.1 135.3,90.7 C128.5,87.4 121.6,84.2 114.8,81.1 C101,74.8 87.2,68.5 73.6,61.7 C66.8,58.2 60.1,54.7 53.5,50.5 C50,48 46.8,45.8 43.7,43 C42.2,41.6 40.7,40 39.5,37.8 C38.9,36.7 38.4,35.4 38.3,33.8 C38.3,33 38.3,32.2 38.5,31.4 C38.6,31 38.7,30.6 38.9,30.2 C39,29.9 39.3,29.3 39.4,29.2 L39.6,29.2 L39.6,29.2 Z M45.2,32.6 C45,32.9 45.1,32.8 45,32.9 C45,33 45,33 44.9,33.1 L44.9,33.5 C44.9,33.8 45.1,34.3 45.3,34.9 C45.9,36.1 47,37.4 48.2,38.5 C50.7,40.9 53.6,43.1 56.7,45.1 C62.8,49.2 69.4,52.8 76.1,56.4 C89.4,63.4 103.1,69.9 116.7,76.5 C123.5,79.8 130.3,83.2 137.1,86.6 C143.9,90.1 150.6,93.6 157.1,97.9 C158.7,99 160.3,100.1 161.8,101.4 C162.6,102 163.3,102.7 164.1,103.4 C164.5,103.8 164.8,104.1 165.2,104.6 L165.4,104.9 L165.7,105.2 C165.9,105.4 166,105.6 166.2,105.8 C167.4,107.5 168.3,109.4 168.9,111.4 C169.5,113.4 169.6,115.5 169.6,117.5 C169.5,121.5 168.4,125.4 167.1,129.1 C165.8,132.8 164.2,136.2 162.7,139.7 L160.3,138.5 L160.3,138.5 C165,130.5 167.2,121.3 167.1,112.1 C166.9,102.9 164.5,93.8 160.6,85.4 C159.6,83.3 158.6,81.2 157.4,79.2 L155.6,76 C154.9,74.7 154.6,73.4 154.3,72.2 C153.7,69.7 153.3,67.4 152.9,65 C152.5,62.6 152.1,60.3 151.7,58.1 C150.8,53.5 149.7,49.1 148.1,44.8 C146.5,40.6 144.4,36.5 141.8,33 C139.2,29.4 135.9,26.3 132.3,23.8 C128.6,21.3 124.6,19.3 120.3,17.9 C111.7,15 102.5,14 93.3,13.9 C88.7,13.9 84.2,14.1 79.7,14.9 C75.2,15.6 70.8,16.7 66.6,18.2 C62.4,19.7 58.3,21.6 54.6,24 C52.7,25.2 51,26.5 49.4,28 C47.8,29.5 46.3,31 45.2,32.6 L45.2,32.6 L45.2,32.6 Z" id="Shape" fill="#895B2E"></path>
                            <path d="M41.8,30.3 C30.8,47.3 43.9,112.6 113,103.8 C120.3,102.9 144.6,89.9 161,108.1 C169.9,118.1 157.9,143.4 161,138.1 C164.5,132.3 177.9,109.9 157.8,75.4 C151.4,64.3 162,11 92.8,10.3 C66.3,10.2 49.1,19 41.8,30.3" id="Shape" fill="#BA8449"></path>
                            <g id="Clipped" transform="translate(25.000000, 26.000000)">
                                <mask id="mask-24" fill="white">
                                    <use xlink:href="#path-23"></use>
                                </mask>
                                <g id="D_25_"></g>
                                <g id="Group" opacity="0.15" mask="url(#mask-24)">
                                    <g transform="translate(0.000000, -1.000000)">
                                        <g transform="translate(0.168000, 0.833000)">
                                            <path d="M14.8,8.6 C34.7,-4.2 94.9,-3.3 114.1,27.4 C126.9,47.8 103.5,98.2 94.8,104.6 C86.2,111 74.2,116.6 42.6,109 C15.8,102.6 56.1,77.7 24.7,74.1 C-4,70.8 -6.9,22.6 14.8,8.6" id="Shape" fill="#E3AB5E"></path>
                                        </g>
                                    </g>
                                </g>
                            </g>
                            <g id="Clipped" transform="translate(82.000000, 81.000000)">
                                <mask id="mask-26" fill="white">
                                    <use xlink:href="#path-25"></use>
                                </mask>
                                <g id="D_27_"></g>
                                <g id="Group" opacity="0.25" mask="url(#mask-26)" fill="#E3AB5E">
                                    <g transform="translate(0.000000, 0.166000)" id="Shape">
                                        <path d="M13.6,2.8 C13.6,4.3 10.7,5.6 7.1,5.6 C3.5,5.6 0.6,4.4 0.6,2.8 C0.6,1.3 3.5,0 7.1,0 C10.7,0.1 13.6,1.3 13.6,2.8"></path>
                                    </g>
                                </g>
                            </g>
                            <path d="M84.1,75.8 C85.6,74.8 93.6,75.1 94.6,76.2 C95.6,77.2 97.8,81.4 95.3,83.2 C94.4,83.8 94.4,81.3 92.4,81.7 C90,82.2 91.3,85.3 89.4,85.3 C86.5,85.2 89.3,81.9 86.8,81.5 C84.9,81.1 84.5,83 83.6,82.8 C80.7,82.2 82,77.2 84.1,75.8" id="Shape" fill="#F8A38F"></path>
                            <g id="Clipped" transform="translate(81.000000, 75.000000)">
                                <mask id="mask-28" fill="white">
                                    <use xlink:href="#path-27"></use>
                                </mask>
                                <g id="D_29_"></g>
                                <g id="Group" mask="url(#mask-28)" fill="#F8A38F">
                                    <g transform="translate(0.220700, -0.594700)" id="Shape">
                                        <path d="M7.2,0.8 C5.3,0.8 3.5,1 2.9,1.4 C0.8,2.8 -0.5,7.8 2.3,8.3 L2.4,8.3 C3.1,8.3 3.5,6.9 5,6.9 L5.5,6.9 C8,7.3 5.3,10.7 8.1,10.7 L8.1,10.7 C9.9,10.7 8.6,7.7 11.1,7.2 L11.5,7.2 C12.9,7.2 13.1,8.8 13.7,8.8 C13.8,8.8 13.9,8.8 14,8.7 C16.6,6.9 14.4,2.7 13.3,1.7 C12.8,1.2 9.9,0.8 7.2,0.8 M7.2,1.5 L7.2,1.5 C10.2,1.5 12.5,1.9 12.9,2.2 C13.5,2.8 14.7,5 14.5,6.6 C14.4,7.2 14.2,7.7 13.8,8 C13.8,7.9 13.7,7.9 13.6,7.8 C13.2,7.3 12.6,6.5 11.5,6.5 C11.3,6.5 11.1,6.5 11,6.6 C9.3,7 9,8.3 8.7,9.2 C8.5,10.1 8.4,10.1 8.1,10.1 L8.1,10.1 C7.3,10.1 7.3,9.9 7.3,9 C7.3,8.1 7.3,6.7 5.5,6.4 L4.9,6.4 C3.8,6.4 3.1,7.1 2.6,7.5 C2.5,7.6 2.3,7.8 2.2,7.8 C1.8,7.7 1.4,7.5 1.2,6.7 C0.9,5.3 1.9,2.9 3,2.1 C3.6,1.7 5,1.5 7.2,1.5"></path>
                                    </g>
                                </g>
                            </g>
                            <g id="Clipped" transform="translate(38.000000, 86.000000)">
                                <mask id="mask-30" fill="white">
                                    <use xlink:href="#path-29"></use>
                                </mask>
                                <g id="D_31_"></g>
                                <g id="Group" opacity="0.25" mask="url(#mask-30)">
                                    <g transform="translate(0.000000, -1.000000)">
                                        <g transform="translate(0.098600, 0.950200)">
                                            <path d="M112.7,16.1 C115.7,35.3 91.7,59.4 59.4,64.4 C27.1,69.3 3.3,40.5 0.3,21.2 C-2.7,2 17.1,9.3 49.4,4.4 C81.7,-0.5 109.7,-3.1 112.7,16.1" id="Shape" fill="#F7E8D0"></path>
                                        </g>
                                    </g>
                                </g>
                            </g>
                            <g id="Clipped" transform="translate(44.000000, 87.000000)">
                                <mask id="mask-32" fill="white">
                                    <use xlink:href="#path-31"></use>
                                </mask>
                                <g id="D_33_"></g>
                                <g id="Group" opacity="0.5" mask="url(#mask-32)">
                                    <g transform="translate(-1.000000, -1.000000)">
                                        <g transform="translate(0.214800, 0.976600)">
                                            <path d="M23.3,44.3 C22.4,42.9 21.9,41.2 21.4,39.6 C20.9,38 20.4,36.4 19.9,34.8 C18.9,31.6 17.8,28.4 16.3,25.4 C14.8,22.4 12.9,19.6 10.5,17.5 C8.1,15.4 5.2,14 2.1,13.4 L2.1,13.4 L2.1,13.4 C1,13 0.5,11.9 0.9,10.9 C1.3,9.9 2.3,9.4 3.2,9.6 C10.4,11.3 17.9,12.1 25.3,12.2 C32.7,12.3 40.3,11.9 47.8,11 C55.3,10.1 62.7,8.8 70,7.1 C77.3,5.4 84.6,3.4 91.7,1 C92.8,0.6 93.9,1.2 94.2,2.2 C94.5,3 94.2,3.8 93.6,4.3 L93.6,4.3 L93.6,4.3 C93.4,4.5 93,4.8 92.7,5.1 C92.4,5.4 92.1,5.8 91.8,6.1 C91.2,6.8 90.6,7.6 90,8.4 C88.8,10 87.7,11.6 86.7,13.3 C84.5,16.6 82.5,20 80.6,23.5 C78.7,27 76.8,30.5 75.1,34 C74.2,35.8 73.4,37.6 72.7,39.4 C72.3,40.3 72,41.2 71.6,42.2 C71.4,42.7 71.3,43.1 71.2,43.6 L71.2,43.8 C71.2,43.9 71.2,43.9 71.1,44 C71.1,44.1 71,44.2 70.9,44.2 C70.8,44.3 70.7,44.4 70.5,44.5 C70.3,44.7 70,44.8 69.8,44.9 C67.9,45.7 65.9,46.1 64,46.5 C62.1,46.9 60.1,47.2 58.1,47.4 C54.1,47.9 50.2,48.3 46.2,48.4 C42.2,48.6 38.2,48.6 34.3,48.2 C32.3,48 30.3,47.7 28.4,47.2 C27.4,46.9 26.5,46.6 25.6,46.1 C24.7,45.7 23.9,45.1 23.3,44.3 M23.4,44.2 C23.9,45 24.8,45.6 25.7,46 C26.6,46.4 27.5,46.7 28.5,47 C30.4,47.5 32.4,47.8 34.4,47.9 C38.4,48.2 42.3,48.2 46.3,48 C50.3,47.8 54.2,47.3 58.1,46.8 C60,46.5 62,46.2 63.9,45.7 C65.8,45.2 67.8,44.8 69.5,44 C69.7,43.9 69.9,43.8 70.1,43.6 C70.3,43.5 70.4,43.4 70.4,43.3 C70.5,42.8 70.6,42.3 70.8,41.8 C71.1,40.8 71.4,39.9 71.7,38.9 C72.4,37 73.1,35.2 73.9,33.3 C75.5,29.6 77.1,26 78.8,22.4 C80.5,18.8 82.3,15.2 84.2,11.7 C85.1,9.9 86.1,8.2 87.2,6.4 C87.7,5.5 88.3,4.6 88.9,3.8 C89.2,3.4 89.5,2.9 89.8,2.5 C90.2,2.1 90.5,1.6 91,1.2 L91,1.2 L92.9,4.6 C85.6,7.1 78.3,9.1 70.8,10.8 C63.3,12.5 55.8,13.9 48.2,14.8 C40.6,15.7 32.9,16.2 25.2,16 C17.5,15.8 9.8,14.9 2.2,13.1 L3.3,9.1 L3.3,9.1 C6.6,11.1 9.6,13 11.9,15.7 C14.2,18.4 15.8,21.5 17.1,24.7 C18.3,27.9 19.3,31.2 20.1,34.4 C20.5,36 21,37.7 21.4,39.3 C22,41.2 22.5,42.8 23.4,44.2" id="Shape" fill="#D8CAB2"></path>
                                        </g>
                                    </g>
                                </g>
                            </g>
                            <g id="Clipped" transform="translate(45.000000, 88.000000)">
                                <mask id="mask-34" fill="white">
                                    <use xlink:href="#path-33"></use>
                                </mask>
                                <g id="D_35_"></g>
                                <g id="Group" opacity="0.5" mask="url(#mask-34)">
                                    <g transform="translate(-1.000000, 0.000000)">
                                        <g transform="translate(0.232400, 0.988300)">
                                            <path d="M22.3,42.3 C21.4,40.9 20.9,39.3 20.4,37.7 C19.9,36.1 19.5,34.5 19,32.9 C18,29.7 17,26.5 15.5,23.4 C14.1,20.4 12.2,17.6 9.9,15.4 C7.5,13.1 4.6,11.5 1.5,10.8 L1.5,10.8 L1.5,10.7 C1,10.5 0.7,9.9 0.9,9.4 C1.1,8.9 1.6,8.6 2.1,8.7 C9.4,10.4 16.9,11.2 24.5,11.3 C32.1,11.4 39.6,11 47.1,10.1 C54.6,9.2 62,7.8 69.4,6.2 C76.8,4.5 84.1,2.5 91.2,0.1 C91.7,-0.1 92.3,0.2 92.5,0.7 C92.6,1.1 92.5,1.5 92.2,1.8 L92.2,1.8 L92.2,1.8 C91.6,2.3 90.9,3.1 90.3,3.8 C89.7,4.5 89.1,5.4 88.5,6.1 C87.4,7.7 86.3,9.4 85.3,11.1 C83.2,14.4 81.2,17.9 79.3,21.4 C77.4,24.9 75.6,28.4 74,32 C73.2,33.8 72.4,35.6 71.6,37.4 C71.2,38.3 70.9,39.2 70.6,40.2 C70.4,40.7 70.3,41.1 70.2,41.6 C70.1,42 69.8,42.1 69.6,42.3 C69.4,42.5 69.1,42.6 68.9,42.7 C67,43.5 65,43.9 63.1,44.3 C61.2,44.7 59.2,45 57.2,45.3 C53.3,45.8 49.3,46.2 45.3,46.4 C41.3,46.6 37.3,46.6 33.4,46.2 C31.4,46 29.4,45.7 27.5,45.2 C26.5,44.9 25.6,44.6 24.7,44.2 C23.7,43.7 22.8,43.1 22.3,42.3 M22.3,42.2 C22.8,43 23.7,43.6 24.6,44.1 C25.5,44.5 26.4,44.8 27.4,45.1 C29.3,45.6 31.3,45.9 33.3,46 C37.3,46.4 41.2,46.3 45.2,46.1 C49.2,45.9 53.1,45.5 57.1,44.9 C59,44.6 61,44.3 63,43.8 C64.9,43.4 66.9,42.9 68.6,42.1 C68.8,42 69,41.9 69.2,41.7 C69.4,41.6 69.6,41.4 69.6,41.3 C69.7,40.8 69.8,40.3 70,39.8 C70.3,38.8 70.6,37.9 71,37 C71.7,35.1 72.5,33.3 73.3,31.5 C74.9,27.8 76.6,24.3 78.4,20.7 C80.2,17.1 82,13.6 84,10.1 C85,8.3 86,6.6 87.1,5 C87.6,4.1 88.2,3.3 88.8,2.5 C89.4,1.7 90,0.9 90.9,0.1 L90.9,0.1 L91.9,1.9 C84.7,4.4 77.3,6.4 69.9,8.1 C62.5,9.8 55,11.1 47.4,12.1 C39.8,13 32.2,13.5 24.5,13.3 C16.9,13.1 9.2,12.3 1.7,10.6 L2.2,8.7 L2.2,8.7 C5.5,10 8.5,12 10.8,14.6 C13.1,17.2 14.8,20.2 16.1,23.3 C17.4,26.4 18.4,29.6 19.3,32.9 C19.7,34.5 20.2,36.1 20.7,37.8 C20.9,39.2 21.4,40.8 22.3,42.2" id="Shape" fill="#D8CAB2"></path>
                                        </g>
                                    </g>
                                </g>
                            </g>
                            <path d="M66.6,131.2 C71.7,139.2 113.4,133.7 114.1,130.5 C115.9,122.4 130.9,93.8 135.7,89.8 C127.1,92.8 82.4,107.1 46.1,98.4 C62.4,103.9 62.6,125 66.6,131.2" id="Shape" fill="#333333"></path>
                            <g id="Clipped" transform="translate(46.000000, 89.000000)">
                                <mask id="mask-36" fill="white">
                                    <use xlink:href="#path-35"></use>
                                </mask>
                                <g id="D_37_"></g>
                                <g id="Group" mask="url(#mask-36)" fill="#333333">
                                    <g transform="translate(-0.750000, 0.250000)" id="Shape">
                                        <path d="M90.3,0.7 C83.6,3 55.4,12.1 26.2,12.1 C17.6,12.1 9,11.3 0.7,9.4 C17.1,14.7 17.3,35.9 21.3,42.1 C23.2,45.1 30.5,46.2 38.8,46.2 C52.2,46.2 68.3,43.4 68.8,41.4 C70.6,33.2 85.5,4.6 90.3,0.7 M84.7,4.6 C78.2,14.4 68.8,33.3 66.9,40.4 C64.4,41.8 51.5,44.2 38.8,44.2 C28.6,44.2 24,42.5 23,41 C22,39.5 21.2,36.7 20.4,33.5 C18.7,27.4 16.3,19 10.6,13.2 C15.6,13.8 20.8,14.1 26.3,14.1 C50.1,14 73.4,8 84.7,4.6"></path>
                                    </g>
                                </g>
                            </g>
                            <path d="M83.7,135.4 C75.1,135.4 69.5,134.2 67.3,131.8 C67.1,131.6 67.1,130.4 68.1,128.1 C70.5,122.6 77.9,113.2 90.7,112.4 C91.6,112.4 92.4,112.3 93.2,112.3 C108.2,112.3 117.2,119.9 117.2,121.2 C117,121.6 116.8,122.2 116.5,123 C115.7,124.9 114.5,127.9 113.4,131.1 C112.1,132.4 97.1,135.4 83.7,135.4" id="Shape" fill="#FCD4C3"></path>
                            <path d="M93.2,111.8 C92.3,111.8 91.5,111.8 90.6,111.9 C73.1,113 65,130.3 66.8,132.4 C69.4,135.2 76.1,136.2 83.7,136.2 C97.2,136.2 113.5,133.1 114,131.6 C115.5,127.1 117.2,123.4 117.9,121.6 C118.5,119.8 108.4,111.7 93.2,111.8 M93.2,113.1 C106.6,113.1 115.6,119.5 116.5,121.4 C116.3,121.8 116.1,122.3 115.9,122.9 C115.1,124.8 113.9,127.6 112.8,130.8 C110.7,132 96.7,134.7 83.7,134.7 C75.6,134.7 70,133.5 67.9,131.4 C67.8,130.7 68.5,127.9 71,124.4 C73.2,121.2 79.6,113.7 90.7,113.1 L93.2,113.1 L93.2,113.1" id="Shape" fill="#F8A38F"></path>
                            <g id="Clipped" transform="translate(67.000000, 111.000000)">
                                <mask id="mask-38" fill="white">
                                    <use xlink:href="#path-37"></use>
                                </mask>
                                <g id="D_39_"></g>
                                <g id="Group" mask="url(#mask-38)" fill="#FCD4C3">
                                    <g transform="translate(-0.916000, -0.083000)" id="Shape">
                                        <path d="M1,20.4 C-0.2,25.8 32.9,-0.7 50.7,12 C54.4,7.1 34.7,-1.2 23.2,0.7 C13.5,2.4 3.5,8.6 1,20.4"></path>
                                    </g>
                                </g>
                            </g>
                            <path d="M73.8,102.8 C75.5,105.8 78.6,120.4 79.9,120.7 C81.2,121 89.4,123.3 90.5,122.8 C91.7,122.3 91.6,119.5 92.8,120.3 C93.8,121 94.3,122.3 95.3,121.8 C97.1,120.9 102.4,117.6 103.3,116.2 C104.1,114.7 104,106.4 103.3,99.8 C99.9,101.4 79.8,103.5 73.8,102.8" id="Shape" fill="#FFF7E3"></path>
                            <g id="Clipped" transform="translate(73.000000, 99.000000)">
                                <mask id="mask-40" fill="white">
                                    <use xlink:href="#path-39"></use>
                                </mask>
                                <g id="D_41_"></g>
                                <g id="Group" mask="url(#mask-40)" fill="#FFDC99">
                                    <g transform="translate(0.750000, 0.250000)" id="Shape">
                                        <path d="M29.6,0.6 C26.6,1.9 10.9,3.7 3,3.7 C1.8,3.7 0.9,3.7 0.1,3.6 C1.8,6.6 4.9,21.2 6.2,21.5 C7.4,21.8 14.2,23.7 16.3,23.7 C16.5,23.7 16.7,23.7 16.8,23.6 C17.8,23.2 17.9,21 18.7,21 C18.8,21 19,21 19.1,21.2 C20,21.7 20.4,22.8 21.2,22.8 C21.3,22.8 21.5,22.8 21.6,22.7 C23.4,21.8 28.7,18.5 29.6,17.1 C30.5,15.6 30.3,7.3 29.6,0.6 M29.1,1.5 C29.7,8.3 29.7,15.5 29.1,16.7 C28.4,17.9 23.6,21 21.4,22.1 L21.3,22.1 C21.1,22.1 20.8,21.8 20.6,21.5 C20.3,21.2 20,20.9 19.6,20.6 C19.3,20.4 19.1,20.3 18.8,20.3 C17.9,20.3 17.6,21.2 17.3,21.9 C17.1,22.3 16.9,22.9 16.6,23 L16.3,23 C14.6,23 9.5,21.6 7.4,21.1 C7,21 6.7,20.9 6.5,20.9 C5.9,20.2 4.6,15.5 3.6,12.1 C2.7,9 1.9,6.1 1.2,4.4 L3.1,4.4 C10.6,4.4 24.6,2.8 29.1,1.5"></path>
                                    </g>
                                </g>
                            </g>
                            <g id="Clipped" transform="translate(73.000000, 99.000000)">
                                <mask id="mask-42" fill="white">
                                    <use xlink:href="#path-41"></use>
                                </mask>
                                <g id="D_43_"></g>
                                <g id="Group" mask="url(#mask-42)" fill="#EADCBE">
                                    <g transform="translate(0.751000, 0.250000)" id="Shape">
                                        <path d="M2.4,10.6 C1.9,5.2 26.8,3.4 29.9,3.9 C29.9,2.6 29.7,1.8 29.7,0.3 C25.6,2.4 3.2,4.6 0.2,3.7 C0.5,4.3 1.6,7.3 2.4,10.6"></path>
                                    </g>
                                </g>
                            </g>
                            <g id="Clipped" transform="translate(88.000000, 105.000000)">
                                <mask id="mask-44" fill="white">
                                    <use xlink:href="#path-43"></use>
                                </mask>
                                <g id="D_45_"></g>
                                <g id="Group" mask="url(#mask-44)" fill="#FFDC99">
                                    <g transform="translate(-0.542000, 0.368200)" id="Shape">
                                        <path d="M1.1,0.4 C1.6,1.6 2.1,2.7 2.5,3.9 C2.9,5.1 3.3,6.3 3.7,7.5 L4.8,11.1 L5.9,14.7 L4.2,15.2 L3.4,11.5 L2.5,7.8 C2.2,6.6 1.9,5.4 1.6,4.2 C1.2,3 0.9,1.8 0.5,0.7 L1.1,0.4 L1.1,0.4 Z"></path>
                                    </g>
                                </g>
                            </g>
                            <g id="Clipped" transform="translate(3.000000, 13.000000)">
                                <mask id="mask-46" fill="white">
                                    <use xlink:href="#path-45"></use>
                                </mask>
                                <g id="D_47_"></g>
                                <g id="Group" opacity="0.4" mask="url(#mask-46)">
                                    <g transform="translate(-1.000000, -1.000000)">
                                        <g transform="translate(0.584000, 0.916500)">
                                            <path d="M1.8,8.2 C15,11.6 12.9,34.4 20.7,36.2 C28.6,38 38.9,17.4 39.9,12.9 C24.7,6.4 17.6,-1.2 6.7,1 C3.1,1.7 -1.9,7.2 1.8,8.2" id="Shape" fill="#FCD4C3"></path>
                                        </g>
                                    </g>
                                </g>
                            </g>
                            <g id="Clipped" transform="translate(23.000000, 50.000000)">
                                <mask id="mask-48" fill="white">
                                    <use xlink:href="#path-47"></use>
                                </mask>
                                <g id="D_49_"></g>
                                <g id="Group" opacity="0.5" mask="url(#mask-48)" fill="#E3AB5E">
                                    <g transform="translate(0.667000, 0.333000)" id="Shape">
                                        <path d="M17.3,37.5 C33.9,38.8 47.6,39.5 52.5,34.4 C57.4,29.3 59.2,6.7 67.2,7.3 C74,7.8 76.3,37.2 80.7,38 C85.1,38.9 116.2,47.4 124,39.4 C131.7,31.4 135.3,26.4 133.5,21.6 C131.7,16.8 86.2,1.3 76.9,0.4 C67.6,-0.5 4.8,7.4 3.2,11.3 C1.6,15.3 -0.1,14.7 0.2,18.9 C0.8,27 0.7,36.2 17.3,37.5"></path>
                                    </g>
                                </g>
                            </g>
                            <path d="M87.5,54.4 C88.7,54.4 93.4,54 94.5,54.9 C100.5,59.6 100.3,78.9 106.6,84.9 C112.2,90.3 142.8,94.2 148.1,88.1 C153.4,82 161.2,63.4 163,62 C164.8,60.7 168.8,59.7 170,57.8 C171.2,56 170.2,47.8 167.4,48.2 C164.6,48.6 159.3,50.3 156,49.4 C152.7,48.4 136.6,38.3 96.1,44.4 C92.2,45 88.3,44.4 85.6,43.7 C82.9,43 67.7,34.2 27,40 C23,40.6 17.4,38.8 15.4,39 C13.4,39.2 12.8,45.5 13.6,47.1 C14.4,48.7 18.6,50.1 19.1,52.1 C19.6,54.1 23.3,73.7 32.9,81.8 C43.1,90.4 69.1,84.4 71.4,82.8 C81.7,75.5 84,54.4 87.5,54.4" id="Shape" fill="#333333"></path>
                            <g id="Clipped" transform="translate(13.000000, 38.000000)">
                                <mask id="mask-50" fill="white">
                                    <use xlink:href="#path-49"></use>
                                </mask>
                                <g id="D_51_"></g>
                                <g id="Group" mask="url(#mask-50)" fill="#1A1A1A">
                                    <g transform="translate(0.038100, -0.776900)" id="Shape">
                                        <path d="M39.4,0.9 C32.3,0.9 23.8,1.4 13.8,2.9 C13.2,3 12.6,3 12,3 C8.5,3 4.4,1.9 2.5,1.9 L2.2,1.9 C0.2,2.1 -0.4,8.4 0.4,10 C1.2,11.7 5.4,13 5.9,15 C6.4,17 10.1,36.6 19.7,44.7 C23.7,48.1 30.3,49.2 36.9,49.2 C46.9,49.2 56.8,46.7 58.2,45.7 C68.6,38.3 71,17.2 74.5,17.2 C75,17.2 76.3,17.1 77.5,17.1 C79.1,17.1 80.8,17.2 81.4,17.6 C87.4,22.3 87.2,41.6 93.5,47.6 C97.1,51 110.9,53.9 121.7,53.9 C127.8,53.9 133,53 134.9,50.8 C140.2,44.7 148,26.1 149.8,24.7 C151.6,23.3 155.6,22.4 156.8,20.5 C157.9,18.7 157,10.9 154.3,10.9 L154.1,10.9 C151.9,11.2 148.1,12.3 145,12.3 C144.2,12.3 143.4,12.2 142.7,12 C140.1,11.2 130,5.1 107,5.1 C100.1,5.1 92.1,5.6 82.8,7 C81.7,7.2 80.5,7.2 79.5,7.2 C76.8,7.2 74.3,6.8 72.4,6.3 C70.4,6.1 61.2,0.9 39.4,0.9 M39.4,2.9 C57.5,2.9 66.8,6.5 70.2,7.9 C70.9,8.2 71.4,8.4 71.9,8.5 C73.7,8.9 76.4,9.5 79.5,9.5 C80.7,9.5 82,9.4 83.1,9.2 C91.6,7.9 99.6,7.3 107,7.3 C126,7.3 135.9,11.5 140.2,13.4 C141.1,13.8 141.7,14 142.2,14.2 C143.1,14.5 144,14.6 145.1,14.6 C147.3,14.6 149.7,14.1 151.7,13.7 C152.6,13.5 153.5,13.3 154.2,13.2 C155.1,14.2 155.7,18.6 155.2,19.8 C154.8,20.4 153.1,21.2 151.9,21.7 C150.7,22.2 149.6,22.7 148.8,23.3 C147.7,24.1 146.6,26.2 143.4,32.6 C140.3,38.7 136.5,46.3 133.6,49.6 C132.6,50.8 129,52 121.8,52 C111.3,52 97.9,49.2 94.9,46.3 C92.1,43.7 90.7,37.6 89.3,31.7 C87.7,25.1 86.2,18.9 82.7,16.1 C81.8,15.4 80.4,15.1 77.6,15.1 L75.4,15.1 L74.5,15.1 C71.7,15.1 70.5,18.4 68.4,24.4 C66.1,31 62.8,39.9 57.1,44 C55.8,44.8 46.4,47.2 36.9,47.2 C29.6,47.2 24.1,45.8 21,43.2 C17.2,40 11.9,32.5 8.1,15.4 C8,15 7.9,14.7 7.9,14.5 C7.4,12.6 5.6,11.5 4.1,10.5 C3.5,10.1 2.5,9.4 2.3,9.1 C1.9,8.2 2.3,4.9 2.9,3.8 C3.6,3.8 4.6,4 5.7,4.2 C7.6,4.5 10,4.9 12.2,4.9 C12.9,4.9 13.7,4.9 14.3,4.7 C23.2,3.6 31.7,2.9 39.4,2.9"></path>
                                    </g>
                                </g>
                            </g>
                            <g id="Clipped" transform="translate(28.000000, 45.000000)">
                                <mask id="mask-52" fill="white">
                                    <use xlink:href="#path-51"></use>
                                </mask>
                                <g id="D_53_"></g>
                                <g id="Group" opacity="0.5" mask="url(#mask-52)">
                                    <g transform="translate(1.000000, 1.000000)">
                                        <g transform="translate(0.500000, 0.750000)">
                                            <path d="M0.7,5.7 C-0.2,6.9 -0.8,24.6 6.7,29.4 C11.6,32.6 32.4,31.9 36.6,29.6 C43.1,25.9 49.5,9.1 47.7,6.7 C44.7,2.7 23.1,-2.6 6.9,1.6 C4.9,2 1.8,4.2 0.7,5.7 L0.7,5.7 Z" id="Shape" stroke="#333333" stroke-width="4"></path>
                                        </g>
                                    </g>
                                </g>
                            </g>
                            <path d="M30.2,52.4 C29.3,53.6 28.7,71.3 36.2,76.1 C41.1,79.3 61.9,78.6 66.1,76.3 C72.6,72.6 79,55.8 77.2,53.4 C74.2,49.4 52.6,44.1 36.4,48.3 C34.4,48.8 31.3,50.9 30.2,52.4" id="Shape" fill="#FFFFFF"></path>
                            <g id="Clipped" transform="translate(103.000000, 50.000000)">
                                <mask id="mask-54" fill="white">
                                    <use xlink:href="#path-53"></use>
                                </mask>
                                <g id="D_55_"></g>
                                <g id="Group" opacity="0.5" mask="url(#mask-54)">
                                    <g transform="translate(1.000000, 1.000000)">
                                        <g transform="translate(0.593800, 0.063000)">
                                            <path d="M47.8,9.1 C48.6,10.4 46.8,28 38.8,31.9 C33.5,34.4 13,31 9.2,28.2 C3.2,23.7 -1,6.2 1.1,4 C4.6,0.4 26.7,-2 42.2,4.2 C44.1,4.9 46.9,7.5 47.8,9.1 L47.8,9.1 Z" id="Shape" stroke="#333333" stroke-width="4"></path>
                                        </g>
                                    </g>
                                </g>
                            </g>
                            <path d="M152.4,60.2 C153.2,61.5 151.4,79.1 143.4,83 C138.1,85.5 117.6,82.1 113.8,79.3 C107.8,74.8 103.6,57.3 105.7,55.1 C109.2,51.5 131.3,49.1 146.8,55.3 C148.7,56 151.4,58.5 152.4,60.2" id="Shape" fill="#FFFFFF"></path>
                            <path d="M53.9,63.2 C53.4,67.1 51.4,70 49.5,69.7 C47.6,69.4 46.6,66.1 47.1,62.2 C47.6,58.3 49.6,55.4 51.5,55.7 C53.4,56 54.4,59.3 53.9,63.2" id="Shape" fill="#000000"></path>
                            <path d="M133.6,67.6 C134,71.5 132.8,74.8 131,75 C129.1,75.2 127.3,72.2 126.9,68.3 C126.5,64.4 127.7,61.1 129.5,60.9 C131.3,60.8 133.1,63.8 133.6,67.6" id="Shape" fill="#000000"></path>
                            <g id="Clipped" transform="translate(13.000000, 43.000000)">
                                <mask id="mask-56" fill="white">
                                    <use xlink:href="#path-55"></use>
                                </mask>
                                <g id="D_57_"></g>
                                <g id="Group" opacity="0.3" mask="url(#mask-56)">
                                    <g transform="translate(-1.000000, 0.000000)">
                                        <g transform="translate(0.375000, 0.250000)">
                                            <path d="M3.1,1.5 C5.4,3 7.5,2.1 8,5.1 C8.5,8.1 15.4,34.1 24,37.1 C38.1,42 55.9,37.2 58.3,35.7 C60.7,34.2 72,8.9 73.9,7.9 C75.8,6.9 81.8,8 83.1,8.6 C87,10.3 94.2,37.7 96.1,39.1 C104.8,45.2 132.7,44.7 134,43.1 C135.4,41.4 145.8,17.5 147.7,16.1 C150.4,14 156.7,12.6 156.9,13.5 C157.1,14.4 151.8,15.3 150.2,17.2 C148.6,19.2 138.1,42.1 134.8,44.1 C131.5,46.1 107.1,49.4 94.7,40.7 C88.8,36.5 86.5,11.6 81.8,10.2 C78.8,9.3 76.5,9.4 74.3,10 C71.4,11.9 67.3,33.1 58.6,38.4 C55.1,40.5 28,45.8 19.9,37.3 C4.8,21.5 9.4,7.4 4.5,5.4 C1.2,4 0.5,2.2 0.5,1 C0.8,-0.3 1.9,0.7 3.1,1.5" id="Shape" fill="#333333"></path>
                                        </g>
                                    </g>
                                </g>
                            </g>
                            <g id="Clipped" transform="translate(15.000000, 39.000000)">
                                <mask id="mask-58" fill="white">
                                    <use xlink:href="#path-57"></use>
                                </mask>
                                <g id="D_59_"></g>
                                <g id="Group" opacity="0.3" mask="url(#mask-58)">
                                    <g transform="translate(-1.000000, -1.000000)">
                                        <g transform="translate(0.750000, 0.250000)">
                                            <path d="M1,1.2 C-0.6,0.6 7.8,4.1 10.9,3.9 C14,3.7 19.2,1.5 20.9,1 C22.4,0.5 13.1,2.2 10.8,2.1 C8.5,2 1.9,1.5 1,1.2" id="Shape" fill="#333333"></path>
                                        </g>
                                    </g>
                                </g>
                            </g>
                            <g id="Clipped" transform="translate(80.000000, 44.000000)">
                                <mask id="mask-60" fill="white">
                                    <use xlink:href="#path-59"></use>
                                </mask>
                                <g id="D_61_"></g>
                                <g id="Group" opacity="0.3" mask="url(#mask-60)">
                                    <g transform="translate(0.000000, -1.000000)">
                                        <g transform="translate(0.500000, 0.250000)">
                                            <path d="M0.1,0.9 C3,2.2 4.3,5.5 7.1,5.8 C9.9,6.1 13.3,6.6 14.9,5.7 C16.5,4.8 20.5,2.7 21.6,2.5 C22.8,2.3 12.9,3.8 9.2,3.5 C5.5,3.1 1.2,1 0.1,0.9" id="Shape" fill="#333333"></path>
                                        </g>
                                    </g>
                                </g>
                            </g>
                            <g id="Clipped" transform="translate(151.000000, 48.000000)">
                                <mask id="mask-62" fill="white">
                                    <use xlink:href="#path-61"></use>
                                </mask>
                                <g id="D_63_"></g>
                                <g id="Group" opacity="0.3" mask="url(#mask-62)">
                                    <g transform="translate(0.000000, -1.000000)">
                                        <g transform="translate(0.375000, 0.375000)">
                                            <path d="M0.2,0.6 C-1,0.1 4.6,4.6 6.3,4.4 C8,4.2 11,2.3 12.3,1.8 C13.3,1.4 8.3,2.8 6.8,2.5 C5.3,2.4 1.4,1.1 0.2,0.6" id="Shape" fill="#333333"></path>
                                        </g>
                                    </g>
                                </g>
                            </g>
                            <g id="Clipped" transform="translate(26.000000, 44.000000)">
                                <mask id="mask-64" fill="white">
                                    <use xlink:href="#path-63"></use>
                                </mask>
                                <g id="D_65_"></g>
                                <g id="Group" opacity="0.3" mask="url(#mask-64)">
                                    <g transform="translate(-1.000000, 0.000000)">
                                        <g transform="translate(0.750000, 0.625000)">
                                            <path d="M1.3,5.2 C8.7,-2.1 26.3,0.4 29.5,1 C8.4,2.5 8,4.1 4.3,7.8 C3.8,10.7 3.1,20.3 6.4,28.7 C2.7,26.7 -1.2,7.7 1.3,5.2" id="Shape" fill="#333333"></path>
                                        </g>
                                    </g>
                                </g>
                            </g>
                            <g id="Clipped" transform="translate(129.000000, 49.000000)">
                                <mask id="mask-66" fill="white">
                                    <use xlink:href="#path-65"></use>
                                </mask>
                                <g id="D_67_"></g>
                                <g id="Group" opacity="0.3" mask="url(#mask-66)">
                                    <g transform="translate(-1.000000, 0.000000)">
                                        <g transform="translate(0.660200, 0.797900)">
                                            <path d="M27.8,7.9 C21.4,-0.3 3.7,-0.2 0.4,0.1 C21.1,4.4 21.3,6 24.5,10.2 C24.7,13.1 24.1,22.7 19.8,30.6 C23.6,29 29.9,10.6 27.8,7.9" id="Shape" fill="#333333"></path>
                                        </g>
                                    </g>
                                </g>
                            </g>
                            <g id="Clipped" transform="translate(29.000000, 46.000000)">
                                <mask id="mask-68" fill="white">
                                    <use xlink:href="#path-67"></use>
                                </mask>
                                <g id="D_69_"></g>
                                <g id="Group" mask="url(#mask-68)" fill="#D0DDDC">
                                    <g transform="translate(0.812500, 0.375000)" id="Shape">
                                        <path d="M0.6,18.2 C1.3,9.6 2.1,2.6 19.2,2.1 C32.9,1.7 43.8,4.9 45.3,8.2 C46.3,10.3 45.5,19.5 38.7,27.9 C43.1,24 50.1,8.5 47.1,6.6 C36,-0.5 13.9,-0.7 5.7,2.2 C4.2,2.7 1.8,4.4 0.2,6.2 C-0.1,8.4 -0.1,17 0.6,18.2"></path>
                                    </g>
                                </g>
                            </g>
                            <g id="Clipped" transform="translate(30.000000, 65.000000)">
                                <mask id="mask-70" fill="white">
                                    <use xlink:href="#path-69"></use>
                                </mask>
                                <g id="D_71_"></g>
                                <g id="Group" mask="url(#mask-70)" fill="#D0DDDC">
                                    <g transform="translate(0.584000, -0.500000)" id="Shape">
                                        <path d="M0.3,0.7 C2.9,17.5 33.6,12.4 35.4,11.7 C35.3,12.6 19.3,17.1 5.9,11.9 C0.5,9.9 0.1,-1.2 0.3,0.7"></path>
                                    </g>
                                </g>
                            </g>
                            <g id="Clipped" transform="translate(105.000000, 51.000000)">
                                <mask id="mask-72" fill="white">
                                    <use xlink:href="#path-71"></use>
                                </mask>
                                <g id="D_73_"></g>
                                <g id="Group" mask="url(#mask-72)" fill="#D0DDDC">
                                    <g transform="translate(-0.543000, 0.086900)" id="Shape">
                                        <path d="M46.5,21 C46.9,12.3 46.9,5.4 30.1,2.8 C16.6,0.7 5.4,2.5 3.4,5.6 C2.2,7.5 1.8,16.8 7.6,26 C3.7,21.5 -1.4,5.4 1.9,3.8 C13.8,-1.9 35.8,0.6 43.5,4.5 C44.9,5.2 47.2,7.1 48.5,9.2 C48.4,11.3 47.4,19.9 46.5,21"></path>
                                    </g>
                                </g>
                            </g>
                            <g id="Clipped" transform="translate(114.000000, 72.000000)">
                                <mask id="mask-74" fill="white">
                                    <use xlink:href="#path-73"></use>
                                </mask>
                                <g id="D_75_"></g>
                                <g id="Group" mask="url(#mask-74)" fill="#D0DDDC">
                                    <g transform="translate(-0.417000, 0.313500)" id="Shape">
                                        <path d="M36.8,0.3 C32.2,16.6 2.3,7.8 0.6,6.9 C0.6,7.8 15.9,14.2 29.9,10.8 C35.5,9.4 37.4,-1.6 36.8,0.3"></path>
                                    </g>
                                </g>
                            </g>
                            <g id="Clipped" transform="translate(51.000000, 57.000000)">
                                <mask id="mask-76" fill="white">
                                    <use xlink:href="#path-75"></use>
                                </mask>
                                <g id="D_77_"></g>
                                <g id="Group" opacity="0.25" mask="url(#mask-76)" fill="#FFFFFF">
                                    <g transform="translate(0.375000, 0.000000)" id="Shape">
                                        <path d="M2,1.2 C2,0.7 1.6,0.2 1,0.2 C0.4,0.2 0,0.6 0,1.2 C0,1.8 0.4,2.2 1,2.2 C1.6,2.2 2,1.8 2,1.2"></path>
                                    </g>
                                </g>
                            </g>
                            <g id="Clipped" transform="translate(130.000000, 61.000000)">
                                <mask id="mask-78" fill="white">
                                    <use xlink:href="#path-77"></use>
                                </mask>
                                <g id="D_79_"></g>
                                <g id="Group" opacity="0.25" mask="url(#mask-78)" fill="#FFFFFF">
                                    <g transform="translate(0.375000, 0.000000)" id="Shape">
                                        <path d="M2,1.9 C2,1.4 1.6,0.9 1,0.9 C0.5,0.9 0,1.3 0,1.9 C0,2.5 0.4,2.9 1,2.9 C1.5,2.9 2,2.4 2,1.9"></path>
                                    </g>
                                </g>
                            </g>
                            <g id="Clipped" transform="translate(16.000000, 41.000000)">
                                <mask id="mask-80" fill="white">
                                    <use xlink:href="#path-79"></use>
                                </mask>
                                <g id="D_81_"></g>
                                <g id="Group" opacity="0.1" mask="url(#mask-80)">
                                    <g transform="translate(-1.000000, -1.000000)">
                                        <g transform="translate(0.125000, 0.875000)">
                                            <path d="M0.9,2.8 C3.3,5.5 4.8,5.8 8,5.4 C39.1,1.4 56.3,1.5 64.8,9.4 C66.6,11.1 65.6,4.3 62.2,3.4 C36,-3.5 17,2.7 13,3.2 C8.9,3.8 6,2.9 0.9,2.8" id="Shape" fill="#D0DDDC"></path>
                                        </g>
                                    </g>
                                </g>
                            </g>
                            <g id="Clipped" transform="translate(101.000000, 44.000000)">
                                <mask id="mask-82" fill="white">
                                    <use xlink:href="#path-81"></use>
                                </mask>
                                <g id="D_83_"></g>
                                <g id="Group" opacity="0.1" mask="url(#mask-82)">
                                    <g transform="translate(0.000000, -1.000000)">
                                        <g transform="translate(0.625000, 0.875000)">
                                            <path d="M0.4,3.8 C-0.3,4.5 1.25455202e-14,11.7 3.4,9 C13.2,1.2 33.7,3 48,7.8 C45.7,3.3 29,0.2 19.6,0.3 C15.1,0.5 2.3,1.8 0.4,3.8" id="Shape" fill="#D0DDDC"></path>
                                        </g>
                                    </g>
                                </g>
                            </g>
                            <path d="M161.2,53.4 C161.2,53.7 159.6,53.9 157.7,53.9 C155.8,53.9 154.2,53.7 154.2,53.4 C154.2,53.1 155.8,52.9 157.7,52.9 C159.7,52.9 161.2,53.2 161.2,53.4" id="Shape" fill="#D0DDDC"></path>
                            <path d="M26.4,44.8 C26.4,45.1 24.8,45.1 22.9,44.8 C21,44.5 19.5,44 19.6,43.7 C19.7,43.4 21.2,43.4 23.1,43.7 C25,43.9 26.5,44.4 26.4,44.8" id="Shape" fill="#D0DDDC"></path>
                        </g>
                    </g>
                </g>
            </g>
        </g>
    </g>
</svg>
